<svg width="16" height="16" viewBox="0 0 16 16" fill="none" xmlns="http://www.w3.org/2000/svg">
<path d="M2.48572 1.07107C2.0952 0.680543 1.46204 0.680543 1.07151 1.07107C0.680986 1.46159 0.680986 2.09476 1.07151 2.48528L6.72836 8.14214L1.07151 13.799C0.680987 14.1895 0.680986 14.8227 1.07151 15.2132C1.46204 15.6037 2.0952 15.6037 2.48572 15.2132L8.14258 9.55635L13.7994 15.2132C14.19 15.6037 14.8231 15.6037 15.2136 15.2132C15.6042 14.8227 15.6042 14.1895 15.2136 13.799L9.55679 8.14214L15.2136 2.48528C15.6042 2.09476 15.6042 1.46159 15.2136 1.07107C14.8231 0.680543 14.19 0.680543 13.7994 1.07107L8.14258 6.72792L2.48572 1.07107Z" fill="#E0E0E0"/>
</svg>
