<svg width="306" height="39" viewBox="0 0 306 39" fill="none" xmlns="http://www.w3.org/2000/svg">
<path d="M-3 0.750977H8L-12 47H-23L-3 0.750977Z" fill="#ECEDE8"/>
<path d="M28 0.750977H39L19 47H8L28 0.750977Z" fill="#ECEDE8"/>
<path d="M59 0.750977H70L50 47H39L59 0.750977Z" fill="#ECEDE8"/>
<path d="M90 0.750977H101L81 47H70L90 0.750977Z" fill="#ECEDE8"/>
<path d="M121 0.750977H132L112 47H101L121 0.750977Z" fill="#ECEDE8"/>
<path d="M152 0.750977H163L143 47H132L152 0.750977Z" fill="#ECEDE8"/>
<path d="M183 0.750977H194L174 47H163L183 0.750977Z" fill="#ECEDE8"/>
<path d="M214 0.750977H225L205 47H194L214 0.750977Z" fill="#ECEDE8"/>
<path d="M245 0.750977H256L236 47H225L245 0.750977Z" fill="#ECEDE8"/>
<path d="M276 0.750977H287L267 47H256L276 0.750977Z" fill="#ECEDE8"/>
<path d="M307 0.750977H318L298 47H287L307 0.750977Z" fill="#ECEDE8"/>
</svg>
