<svg width="20" height="20" viewBox="0 0 20 20" fill="none" xmlns="http://www.w3.org/2000/svg">
<path d="M14.4806 0H5.51916C2.4759 0 0 2.47601 0 5.51928V14.4807C0 17.5241 2.4759 20 5.51916 20H14.4806C17.5241 20 20 17.524 20 14.4807V5.51928C20.0001 2.47601 17.5241 0 14.4806 0ZM18.2256 14.4807C18.2256 16.5456 16.5456 18.2255 14.4807 18.2255H5.51916C3.45435 18.2256 1.7745 16.5456 1.7745 14.4807V5.51928C1.7745 3.45447 3.45435 1.7745 5.51916 1.7745H14.4806C16.5455 1.7745 18.2255 3.45447 18.2255 5.51928V14.4807H18.2256Z" fill="#469FDC"/>
<path d="M9.99993 4.84668C7.15825 4.84668 4.84644 7.15849 4.84644 10.0002C4.84644 12.8417 7.15825 15.1534 9.99993 15.1534C12.8416 15.1534 15.1534 12.8417 15.1534 10.0002C15.1534 7.15849 12.8416 4.84668 9.99993 4.84668ZM9.99993 13.3788C8.13683 13.3788 6.62093 11.8632 6.62093 10.0001C6.62093 8.13683 8.13671 6.62106 9.99993 6.62106C11.8632 6.62106 13.3789 8.13683 13.3789 10.0001C13.3789 11.8632 11.863 13.3788 9.99993 13.3788Z" fill="#469FDC"/>
<path d="M15.3697 3.34204C15.0278 3.34204 14.6919 3.48045 14.4505 3.72297C14.2078 3.9643 14.0684 4.30027 14.0684 4.64334C14.0684 4.98534 14.208 5.3212 14.4505 5.56371C14.6918 5.80504 15.0278 5.94464 15.3697 5.94464C15.7127 5.94464 16.0475 5.80504 16.29 5.56371C16.5325 5.3212 16.671 4.98523 16.671 4.64334C16.671 4.30027 16.5325 3.9643 16.29 3.72297C16.0487 3.48045 15.7127 3.34204 15.3697 3.34204Z" fill="#469FDC"/>
</svg>
