<svg width="90" height="74" viewBox="0 0 90 74" fill="none" xmlns="http://www.w3.org/2000/svg">
<path d="M6.78614 46.7606C6.78614 50.9976 7.48268 55.1593 8.84955 59.1316L9.30373 58.9787C7.95213 55.0581 7.27088 50.9459 7.27088 46.7606C7.27088 25.8271 24.5425 8.79489 45.7727 8.79489C67.0096 8.79489 84.2833 25.8271 84.2833 46.7606C84.2833 55.6567 81.0998 64.2987 75.3244 71.1086L75.6934 71.4122C81.5408 64.5205 84.7659 55.7665 84.7659 46.7606C84.7659 25.5623 67.2738 8.32123 45.7727 8.32123C24.2783 8.32123 6.78614 25.5623 6.78614 46.7606Z" fill="white"/>
<path d="M10.2669 46.7606C10.2669 49.807 10.6621 52.832 11.4438 55.7514L11.911 55.6287C11.1381 52.7523 10.745 49.7683 10.745 46.7606C10.745 27.7175 26.4619 12.2203 45.7751 12.2203C65.0926 12.2203 80.8052 27.7175 80.8052 46.7606C80.8052 56.2401 76.9884 65.0889 70.0558 71.6641L70.3877 72C77.4164 65.3386 81.2856 56.3758 81.2856 46.7606C81.2856 27.4548 65.3547 11.7466 45.7751 11.7466C26.1956 11.7466 10.2669 27.4548 10.2669 46.7606Z" fill="white"/>
<path d="M89.9998 46.5238H75.1235V47.0018H89.9998V46.5238Z" fill="white"/>
<path d="M12.7954 46.5238H0V47.0018H12.7954V46.5238Z" fill="white"/>
<path d="M46.0155 -1.26151e-05H45.533V20.8732H46.0155V-1.26151e-05Z" fill="white"/>
<path d="M48.8672 15.4756L49.3454 15.523L49.7013 12.2009L49.2231 12.1471L48.8672 15.4756Z" fill="white"/>
<path d="M52.1709 15.9622L52.6403 16.0634L53.3412 12.7931L52.8696 12.694L52.1709 15.9622Z" fill="white"/>
<path d="M55.3997 16.7912L55.856 16.9375L56.8997 13.7619L56.4477 13.6134L55.3997 16.7912Z" fill="white"/>
<path d="M58.522 17.9451L58.9609 18.1388L60.3386 15.0881L59.9019 14.8943L58.522 17.9451Z" fill="white"/>
<path d="M64.3215 21.1919L64.708 21.4718L66.7059 18.7655L66.3129 18.4877L64.3215 21.1919Z" fill="white"/>
<path d="M66.9309 23.2415L67.289 23.5579L69.5555 21.0777L69.1974 20.7612L66.9309 23.2415Z" fill="white"/>
<path d="M69.3093 25.5474L69.6303 25.9026L72.1501 23.6699L71.8269 23.3147L69.3093 25.5474Z" fill="white"/>
<path d="M71.4297 28.0899L71.7092 28.4753L74.4539 26.5139L74.1722 26.1264L71.4297 28.0899Z" fill="white"/>
<path d="M74.8047 33.7588L74.999 34.1915L78.0974 32.8352L77.9009 32.4024L74.8047 33.7588Z" fill="white"/>
<path d="M76.021 36.8203L76.1717 37.2746L79.3923 36.2412L79.2504 35.7912L76.021 36.8203Z" fill="white"/>
<path d="M76.9143 39.9981L77.006 40.4545L80.3271 39.7634L80.2245 39.2983L76.9143 39.9981Z" fill="white"/>
<path d="M77.4602 43.2405L77.506 43.712L80.8774 43.3654L80.8272 42.8917L77.4602 43.2405Z" fill="white"/>
<path d="M77.4602 50.285L80.8272 50.6338L80.8774 50.1645L77.506 49.8071L77.4602 50.285Z" fill="white"/>
<path d="M10.6711 43.3654L14.0425 43.712L14.0927 43.2405L10.7192 42.8917L10.6711 43.3654Z" fill="white"/>
<path d="M76.9143 53.5317L80.2245 54.2206L80.3271 53.7556L77.006 53.0667L76.9143 53.5317Z" fill="white"/>
<path d="M11.2236 39.7634L14.5404 40.4545L14.643 39.9981L11.3241 39.2983L11.2236 39.7634Z" fill="white"/>
<path d="M76.021 56.703L79.2504 57.7322L79.3923 57.2844L76.1717 56.2509L76.021 56.703Z" fill="white"/>
<path d="M12.1575 36.239L15.3781 37.2725L15.5244 36.8203L12.3038 35.7912L12.1575 36.239Z" fill="white"/>
<path d="M74.8047 59.7667L77.9009 61.1253L78.0974 60.6925L74.999 59.334L74.8047 59.7667Z" fill="white"/>
<path d="M13.4551 32.8352L16.5535 34.1915L16.75 33.7588L13.6516 32.4024L13.4551 32.8352Z" fill="white"/>
<path d="M17.1035 26.5118L19.8416 28.4753L20.1233 28.0899L17.383 26.1264L17.1035 26.5118Z" fill="white"/>
<path d="M19.3997 23.6678L21.9216 25.9026L22.2404 25.5474L19.7228 23.3147L19.3997 23.6678Z" fill="white"/>
<path d="M21.9968 21.0777L24.2677 23.5579L24.6192 23.2415L22.3506 20.7612L21.9968 21.0777Z" fill="white"/>
<path d="M24.8489 18.7655L26.8402 21.4718L27.2289 21.1919L25.2397 18.4877L24.8489 18.7655Z" fill="white"/>
<path d="M31.2134 15.0881L32.589 18.1388L33.0301 17.9451L31.6501 14.8943L31.2134 15.0881Z" fill="white"/>
<path d="M34.6487 13.7618L35.699 16.9396L36.1553 16.7911L35.105 13.6154L34.6487 13.7618Z" fill="white"/>
<path d="M38.2073 12.7931L38.9147 16.0634L39.3842 15.9622L38.6811 12.694L38.2073 12.7931Z" fill="white"/>
<path d="M41.8513 12.2009L42.2051 15.523L42.6811 15.4756L42.3317 12.1471L41.8513 12.2009Z" fill="white"/>
<path d="M60.4609 21.2112L60.8736 21.448L65.3542 13.7963L64.9393 13.5552L60.4609 21.2112Z" fill="white"/>
<path d="M72.9053 62.4753L79.2091 66.0729L79.4536 65.6617L73.1411 62.0705L72.9053 62.4753Z" fill="white"/>
<path d="M12.0994 27.8638L19.8639 32.2839L20.0997 31.8684L12.3374 27.4548L12.0994 27.8638Z" fill="white"/>
<path d="M26.1924 13.7942L30.6773 21.448L31.09 21.209L26.6072 13.5573L26.1924 13.7942Z" fill="white"/>
<path d="M47.4609 10.5108L47.9435 10.5367L48.0483 8.48702L47.5745 8.45903L47.4609 10.5108Z" fill="white"/>
<path d="M49.3823 10.6444L49.8605 10.6918L50.081 8.64857L49.6007 8.60554L49.3823 10.6444Z" fill="white"/>
<path d="M51.2974 10.879L51.7734 10.9565L52.0987 8.93053L51.6271 8.85517L51.2974 10.879Z" fill="white"/>
<path d="M53.1926 11.2148L53.6621 11.3117L54.0966 9.30297L53.6293 9.20826L53.1926 11.2148Z" fill="white"/>
<path d="M55.0679 11.6455L55.533 11.7725L56.0679 9.78744L55.6116 9.66687L55.0679 11.6455Z" fill="white"/>
<path d="M56.9223 12.173L57.3765 12.3151L58.0207 10.3709L57.5599 10.2202L56.9223 12.173Z" fill="white"/>
<path d="M58.7385 12.7973L59.1883 12.9653L59.9351 11.0556L59.4853 10.879L58.7385 12.7973Z" fill="white"/>
<path d="M60.5293 13.5142L60.9638 13.708L61.811 11.8306L61.3699 11.6368L60.5293 13.5142Z" fill="white"/>
<path d="M62.2695 14.3194L62.6975 14.5347L63.6451 12.7069L63.215 12.4937L62.2695 14.3194Z" fill="white"/>
<path d="M65.6191 16.199L66.0209 16.4574L67.152 14.7371L66.7568 14.4766L65.6191 16.199Z" fill="white"/>
<path d="M67.2109 17.2648L67.604 17.5425L68.8267 15.8825L68.4403 15.6048L67.2109 17.2648Z" fill="white"/>
<path d="M68.7502 18.408L69.1236 18.7073L70.4337 17.1119L70.0625 16.817L68.7502 18.408Z" fill="white"/>
<path d="M70.2256 19.6374L70.5793 19.9517L71.9746 18.4274L71.623 18.1109L70.2256 19.6374Z" fill="white"/>
<path d="M71.6299 20.9335L71.9683 21.2694L73.4422 19.8182L73.0994 19.4802L71.6299 20.9335Z" fill="white"/>
<path d="M72.9668 22.3048L73.2856 22.6558L74.8359 21.2822L74.5149 20.9291L72.9668 22.3048Z" fill="white"/>
<path d="M74.227 23.7409L74.5327 24.1069L76.1463 22.813L75.845 22.4491L74.227 23.7409Z" fill="white"/>
<path d="M75.4102 25.2415L75.694 25.6248L77.3753 24.4148L77.0936 24.0359L75.4102 25.2415Z" fill="white"/>
<path d="M76.5154 26.8024L76.773 27.1943L78.5242 26.079L78.26 25.6807L76.5154 26.8024Z" fill="white"/>
<path d="M78.46 30.0771L78.6761 30.4991L80.5299 29.5669L80.3181 29.1449L78.46 30.0771Z" fill="white"/>
<path d="M79.3015 31.7866L79.4959 32.2172L81.3999 31.3862L81.2034 30.947L79.3015 31.7866Z" fill="white"/>
<path d="M80.0496 33.5327L80.2243 33.9762L82.1676 33.242L81.9951 32.7985L80.0496 33.5327Z" fill="white"/>
<path d="M80.7044 35.3239L80.8572 35.7696L82.8355 35.1387L82.6848 34.6888L80.7044 35.3239Z" fill="white"/>
<path d="M81.2649 37.1389L81.3915 37.5954L83.4026 37.0636L83.2737 36.6093L81.2649 37.1389Z" fill="white"/>
<path d="M81.7239 38.9862L81.8287 39.4534L83.8615 39.025L83.7611 38.5621L81.7239 38.9862Z" fill="white"/>
<path d="M82.0889 40.855L82.1653 41.32L84.2178 40.9971L84.1414 40.532L82.0889 40.855Z" fill="white"/>
<path d="M82.3547 42.7324L82.4006 43.2039L84.4706 42.9907L84.4203 42.5192L82.3547 42.7324Z" fill="white"/>
<path d="M82.5195 44.627L82.5457 45.1028L84.6222 44.993L84.5961 44.5171L82.5195 44.627Z" fill="white"/>
<path d="M82.5195 48.8985L84.5961 49.004L84.6222 48.5303L82.5457 48.4205L82.5195 48.8985Z" fill="white"/>
<path d="M82.3547 50.791L84.4203 51.0063L84.4706 50.537L82.4006 50.3195L82.3547 50.791Z" fill="white"/>
<path d="M82.0889 52.6727L84.1414 52.9934L84.2178 52.5262L82.1653 52.2054L82.0889 52.6727Z" fill="white"/>
<path d="M81.7239 54.5393L83.7611 54.9678L83.8615 54.5006L81.8287 54.0764L81.7239 54.5393Z" fill="white"/>
<path d="M81.2659 56.3823L83.2725 56.9141L83.4014 56.4554L81.3925 55.928L81.2659 56.3823Z" fill="white"/>
<path d="M80.7044 58.1994L82.6848 58.8346L82.8355 58.3824L80.8572 57.7495L80.7044 58.1994Z" fill="white"/>
<path d="M80.0496 59.9863L81.9951 60.727L82.1676 60.2791L80.2243 59.5471L80.0496 59.9863Z" fill="white"/>
<path d="M79.3015 61.741L81.2034 62.5743L81.3999 62.1415L79.4959 61.3083L79.3015 61.741Z" fill="white"/>
<path d="M78.46 63.4483L80.3181 64.3827L80.5299 63.9586L78.6761 63.0285L78.46 63.4483Z" fill="white"/>
<path d="M76.5154 66.7251L78.26 67.8404L78.5242 67.4464L76.7774 66.329L76.5154 66.7251Z" fill="white"/>
<path d="M75.4102 68.2839L77.0936 69.4939L77.3753 69.1063L75.694 67.905L75.4102 68.2839Z" fill="white"/>
<path d="M71.0762 32.0837L71.3185 32.4949L82.1269 26.3439L81.8889 25.9348L71.0762 32.0837Z" fill="white"/>
<path d="M1.81714 36.9409L6.99643 38.0971L7.04883 37.8818L1.8761 36.7062L1.81714 36.9409Z" fill="white"/>
<path d="M2.65772 39.701L5.21897 40.1144L5.28884 39.6666L2.73195 39.2209L2.65772 39.701Z" fill="white"/>
<path d="M2.33472 42.0628L4.91999 42.3362L4.96585 41.882L2.38713 41.5827L2.33472 42.0628Z" fill="white"/>
<path d="M2.13354 44.4375L4.72974 44.5753L4.75813 44.1188L2.16411 43.9552L2.13354 44.4375Z" fill="white"/>
<path d="M6.33911 25.2674L10.9791 27.8036L11.0883 27.6098L6.45484 25.0456L6.33911 25.2674Z" fill="white"/>
<path d="M6.35229 28.1374L8.69957 29.2483L8.90045 28.8393L6.57283 27.7047L6.35229 28.1374Z" fill="white"/>
<path d="M5.36255 30.314L7.76005 31.2915L7.95001 30.8738L5.56124 29.8662L5.36255 30.314Z" fill="white"/>
<path d="M4.50977 32.5423L6.96186 33.3863L7.10596 32.9579L4.6648 32.0816L4.50977 32.5423Z" fill="white"/>
<path d="M3.77489 34.8137L6.27721 35.522L6.3973 35.0871L3.91465 34.3465L3.77489 34.8137Z" fill="white"/>
<path d="M1.87549 36.7062L7.04822 37.8817L7.10281 37.6707L1.93445 36.4629L1.87549 36.7062Z" fill="white"/>
<path d="M13.9746 15.2926L17.7172 19.0001L17.87 18.8493L14.1515 15.1182L13.9746 15.2926Z" fill="white"/>
<path d="M13.1726 18.0527L15.1159 19.7622L15.4282 19.4263L13.5023 17.6997L13.1726 18.0527Z" fill="white"/>
<path d="M11.6204 19.8807L13.6467 21.4782L13.9305 21.1208L11.9217 19.4996L11.6204 19.8807Z" fill="white"/>
<path d="M10.1645 21.7773L12.2782 23.2629L12.5511 22.8969L10.4506 21.3855L10.1645 21.7773Z" fill="white"/>
<path d="M8.81007 23.7538L11.0067 25.1253L11.26 24.7442L9.08081 23.3491L8.81007 23.7538Z" fill="white"/>
<path d="M6.45435 25.0456L11.0878 27.6077L11.1904 27.4139L6.57881 24.826L6.45435 25.0456Z" fill="white"/>
<path d="M24.1062 7.79597L26.6675 12.3861L26.8661 12.2785L24.3333 7.67541L24.1062 7.79597Z" fill="white"/>
<path d="M22.5735 10.2374L23.9535 12.4033L24.3443 12.1664L22.9884 9.98334L22.5735 10.2374Z" fill="white"/>
<path d="M20.5652 11.5595L22.0653 13.6543L22.4365 13.3895L20.9669 11.2839L20.5652 11.5595Z" fill="white"/>
<path d="M18.6253 12.989L20.241 14.9977L20.6035 14.72L19.0139 12.6919L18.6253 12.989Z" fill="white"/>
<path d="M16.7761 14.5153L18.4967 16.4358L18.8461 16.1365L17.1408 14.1988L16.7761 14.5153Z" fill="white"/>
<path d="M14.1516 15.1182L17.8701 18.8493L18.0339 18.69L14.3263 14.946L14.1516 15.1182Z" fill="white"/>
<path d="M35.9736 3.3867L37.1222 8.49139L37.3362 8.44188L36.2204 3.32855L35.9736 3.3867Z" fill="white"/>
<path d="M33.8071 5.31143L34.5124 7.77443L34.9535 7.64956L34.2744 5.17578L33.8071 5.31143Z" fill="white"/>
<path d="M31.4944 6.02189L32.3438 8.44183L32.7827 8.29974L31.9616 5.86903L31.4944 6.02189Z" fill="white"/>
<path d="M29.2302 6.85944L30.215 9.23203C30.3569 9.16744 30.501 9.12436 30.6451 9.06623L29.6887 6.67859C29.5315 6.73887 29.3809 6.797 29.2302 6.85944Z" fill="white"/>
<path d="M27.0254 7.82828L28.1411 10.1449L28.5582 9.94466L27.4686 7.61944L27.0254 7.82828Z" fill="white"/>
<path d="M24.3338 7.67538L26.8644 12.2785L27.0609 12.1773L24.5564 7.56129L24.3338 7.67538Z" fill="white"/>
<path d="M88.6354 56.2509L84.9803 55.4457L84.9475 55.5942L88.594 56.4145L88.6354 56.2509Z" fill="white"/>
<path d="M88.0568 54.3327L86.2554 54.0119L86.1899 54.3284L87.9913 54.6642L88.0568 54.3327Z" fill="white"/>
<path d="M88.3217 52.6899L86.5073 52.4401L86.457 52.7609L88.2715 53.0258L88.3217 52.6899Z" fill="white"/>
<path d="M88.5239 51.0364L86.7029 50.8556L86.6636 51.1785L88.4868 51.3723L88.5239 51.0364Z" fill="white"/>
<path d="M88.659 49.3808L86.8314 49.271L86.8052 49.5939L88.6328 49.721L88.659 49.3808Z" fill="white"/>
<path d="M85.8604 64.4603L82.4454 62.9554L82.3799 63.0975L85.7905 64.6239L85.8604 64.4603Z" fill="white"/>
<path d="M85.6806 62.4709L83.9797 61.8013L83.8552 62.0984L85.5562 62.7874L85.6806 62.4709Z" fill="white"/>
<path d="M86.2772 60.9165L84.5501 60.3093L84.4387 60.6151L86.1615 61.2308L86.2772 60.9165Z" fill="white"/>
<path d="M86.8123 59.3361L85.0589 58.8022L84.9563 59.1101L86.7053 59.6612L86.8123 59.3361Z" fill="white"/>
<path d="M87.2769 57.7429L85.506 57.2692L85.4165 57.5857L87.1851 58.0615L87.2769 57.7429Z" fill="white"/>
<path d="M88.5959 56.4146L84.9472 55.5943L84.9058 55.7493L88.5588 56.5825L88.5959 56.4146Z" fill="white"/>
<path d="M81.7112 69.9805L80.1827 68.988L80.0015 69.2614L81.5234 70.2625L81.7112 69.9805Z" fill="white"/>
<path d="M82.6107 68.5746L81.0363 67.6402L80.877 67.9179L82.4404 68.8674L82.6107 68.5746Z" fill="white"/>
<path d="M83.4464 67.1342L81.8415 66.2623L81.6843 66.5465L83.2848 67.4249L83.4464 67.1342Z" fill="white"/>
<path d="M84.2329 65.6595L82.5931 64.8478L82.4446 65.145L84.08 65.9609L84.2329 65.6595Z" fill="white"/>
<path d="M85.7901 64.626L82.3795 63.0995L82.3162 63.2417L85.7224 64.7789L85.7901 64.626Z" fill="white"/>
<path d="M84.9194 10.9134H71.0715V11.4409H84.9194V10.9134Z" fill="white"/>
<path d="M78.2601 4.34251H77.7295V18.0075H78.2601V4.34251Z" fill="white"/>
<path d="M73.5074 11.1782C73.5074 8.73459 75.5206 6.74956 77.9967 6.74956C80.4706 6.74956 82.486 8.73459 82.486 11.1782C82.486 13.6154 80.4706 15.6048 77.9967 15.6048C75.5206 15.6048 73.5074 13.6154 73.5074 11.1782ZM72.9746 11.1782C72.9746 13.9082 75.2214 16.1323 77.9967 16.1323C80.7632 16.1323 83.0188 13.9082 83.0188 11.1782C83.0188 8.44179 80.7632 6.22636 77.9967 6.22636C75.2214 6.22636 72.9746 8.44179 72.9746 11.1782Z" fill="white"/>
<path d="M65.8374 63.7174C65.1234 64.5636 64.2194 65.2525 63.1385 65.7477C59.6275 64.4602 56.3762 62.6323 53.4787 60.3265C49.9742 57.5427 48.1902 54.957 48.1902 52.6296C48.1902 51.5531 48.5898 50.5972 49.3672 49.7898C50.1423 48.9803 50.8825 48.5734 51.5747 48.5734C53.4176 48.5734 56.3544 49.947 60.3175 52.6533C64.6976 55.6545 66.9182 58.4577 66.9182 60.9982C66.9182 61.9434 66.5536 62.8627 65.8374 63.7174ZM49.258 33.5434C49.258 32.7274 49.6663 31.9179 50.4633 31.1299C51.2603 30.3462 52.042 29.9479 52.78 29.9479C54.898 29.9479 57.5597 31.0761 60.6974 33.3045C64.0403 35.6943 65.7238 37.9527 65.7238 40.0131C65.7238 40.9992 65.3854 41.869 64.7129 42.5924C64.0513 43.3115 63.2477 43.8627 62.3394 44.2416C58.2999 42.3599 55.5465 40.9282 54.1534 39.9873C50.9022 37.8516 49.258 35.6835 49.258 33.5434ZM26.7722 46.8446L18.3111 47.2235C19.191 45.6346 20.8942 43.3373 23.427 40.3339C25.9599 37.3284 27.9556 35.2572 29.4055 34.129V46.8446H26.7722ZM71.3333 50.8319C70.1171 49.4604 67.9117 47.8069 64.7827 45.9102C67.1475 44.1619 68.7982 42.7345 69.7044 41.6731C71.1084 40.0325 71.8115 38.2821 71.8115 36.4586C71.8115 33.8922 70.1629 31.173 66.9051 28.3827C63.6495 25.6032 60.7564 24.1952 58.2803 24.1952C56.0771 24.1952 53.2101 25.5193 49.7274 28.1481C45.5525 31.3 43.4214 34.7125 43.4214 38.2843C43.4214 39.8452 44.0307 41.4621 45.236 43.1005C46.2164 44.4375 47.5876 45.6927 49.3235 46.8273C46.5067 48.4507 44.4914 50.1709 43.3341 51.96C42.3974 53.3745 41.9192 55.0388 41.9192 56.8947C41.9192 58.307 42.3384 59.7754 43.1354 61.2846H43.0088H39.6309V59.7258H36.0805V51.3895C37.4408 51.3895 38.799 51.6112 40.1593 52.0526L41.893 45.3288C40.8471 45.8025 39.8361 46.1298 38.8863 46.2955C37.9343 46.4742 36.9975 46.5582 36.0805 46.5582V35.0957C36.0805 33.4379 36.2093 31.961 36.4604 30.667C36.7137 29.3688 37.2115 28.0124 37.9539 26.5785L35.5717 25.5322C34.6306 26.5979 32.6589 28.2579 29.6828 30.4927C28.1543 31.6337 26.3944 33.2592 24.3725 35.3756C22.3571 37.4984 20.5557 39.6321 18.9639 41.7678C17.9814 43.107 16.0533 45.725 13.1711 49.6327L14.0358 53.0473C15.1537 52.5478 16.3372 52.1753 17.5927 51.9449C19.4814 51.5746 21.9663 51.3895 25.0428 51.3895L29.4055 51.4842V59.7258H25.3201V61.2846H22.1257H11.6885V71.5844H55.433C55.9504 71.6986 56.4592 71.7717 56.9417 71.7717C59.5336 71.7717 62.9814 70.2001 67.189 67.0998C71.5888 63.8574 73.8137 60.8884 73.8137 58.264C73.8137 55.2735 72.9818 52.7717 71.3333 50.8319Z" fill="white"/>
<path fill-rule="evenodd" clip-rule="evenodd" d="M65.8374 63.7174C65.1234 64.5636 64.2194 65.2525 63.1385 65.7477C59.6275 64.4602 56.3762 62.6323 53.4787 60.3265C49.9742 57.5427 48.1902 54.957 48.1902 52.6296C48.1902 51.5531 48.5898 50.5972 49.3672 49.7898C50.1423 48.9803 50.8825 48.5734 51.5747 48.5734C53.4176 48.5734 56.3544 49.947 60.3175 52.6533C64.6976 55.6545 66.9182 58.4577 66.9182 60.9982C66.9182 61.9434 66.5536 62.8627 65.8374 63.7174ZM49.258 33.5434C49.258 32.7274 49.6663 31.9179 50.4633 31.1299C51.2603 30.3462 52.042 29.9479 52.78 29.9479C54.898 29.9479 57.5597 31.0761 60.6974 33.3045C64.0403 35.6943 65.7238 37.9527 65.7238 40.0131C65.7238 40.9992 65.3854 41.869 64.7129 42.5924C64.0513 43.3115 63.2477 43.8627 62.3394 44.2416C58.2999 42.3599 55.5465 40.9282 54.1534 39.9873C50.9022 37.8516 49.258 35.6835 49.258 33.5434ZM26.7722 46.8446L18.3111 47.2235C19.191 45.6346 20.8942 43.3373 23.427 40.3339C25.9599 37.3284 27.9556 35.2572 29.4055 34.129V46.8446H26.7722ZM71.3333 50.8319C70.1171 49.4604 67.9117 47.8069 64.7827 45.9102C67.1475 44.1619 68.7982 42.7345 69.7044 41.6731C71.1084 40.0325 71.8115 38.2821 71.8115 36.4586C71.8115 33.8922 70.1629 31.173 66.9051 28.3827C63.6495 25.6032 60.7564 24.1952 58.2803 24.1952C56.0771 24.1952 53.2101 25.5193 49.7274 28.1481C45.5525 31.3 43.4214 34.7125 43.4214 38.2843C43.4214 39.8452 44.0307 41.4621 45.236 43.1005C46.2164 44.4375 47.5876 45.6927 49.3235 46.8273C46.5067 48.4507 44.4914 50.1709 43.3341 51.96C42.3974 53.3745 41.9192 55.0388 41.9192 56.8947C41.9192 58.307 42.3384 59.7754 43.1354 61.2846H43.0088H39.6309V59.7258H36.0805V51.3895C37.4408 51.3895 38.799 51.6112 40.1593 52.0526L41.893 45.3288C40.8471 45.8025 39.8361 46.1298 38.8863 46.2955C37.9343 46.4742 36.9976 46.5582 36.0805 46.5582V35.0957C36.0805 33.4379 36.2093 31.961 36.4604 30.667C36.7137 29.3688 37.2115 28.0124 37.9539 26.5785L35.5717 25.5322C34.6306 26.5979 32.6589 28.2579 29.6828 30.4927C28.1543 31.6337 26.3944 33.2592 24.3725 35.3756C22.3571 37.4984 20.5557 39.6321 18.9639 41.7678C17.9814 43.107 16.0533 45.725 13.1711 49.6327L14.0358 53.0473C15.1537 52.5478 16.3372 52.1753 17.5927 51.9449C19.4814 51.5746 21.9663 51.3895 25.0428 51.3895L29.4055 51.4842V59.7258H25.3201V61.2846H22.1257H11.6885V71.5844H55.433C55.9504 71.6986 56.4592 71.7717 56.9417 71.7717C59.5336 71.7717 62.9814 70.2001 67.189 67.0998C71.5888 63.8574 73.8138 60.8885 73.8138 58.264C73.8138 55.2735 72.9818 52.7717 71.3333 50.8319Z" stroke="white"/>
<path d="M56.9423 71.5845H43.0093V61.2846H53.4465L56.9423 71.5845Z" fill="#231F20"/>
<path d="M22.1257 61.2846H11.6885V71.5845H22.1257V61.2846Z" fill="#EC008C"/>
<path d="M43.0084 61.2846H32.5669V71.5845H43.0084V61.2846Z" fill="#00AEEF"/>
<path d="M32.5671 61.2846H22.1277V71.5845H32.5671V61.2846Z" fill="#FFF200"/>
<path d="M29.406 46.8446V34.1291C27.9562 35.2572 25.9604 37.3284 23.4276 40.334C20.8947 43.3374 19.1894 45.6325 18.3116 47.2235L26.7727 46.8446H29.406ZM41.8935 45.3289L40.1598 52.0526C38.7995 51.6113 37.4413 51.3895 36.081 51.3895V59.7259H39.6314V61.2846H25.3207V59.7259H29.406V51.4843L25.0434 51.3895C21.9668 51.3895 19.4798 51.5747 17.5932 51.945C16.3377 52.1753 15.1542 52.5457 14.0363 53.0473L13.1694 49.6327C16.0538 45.7229 17.9819 43.107 18.9645 41.7679C20.5541 39.6321 22.3555 37.4985 24.3709 35.3756C26.3928 33.2571 28.1549 31.6338 29.6833 30.4927C32.6573 28.2579 34.6312 26.598 35.5701 25.5322L37.9545 26.5786C37.2099 28.0125 36.7142 29.3688 36.4588 30.6671C36.2077 31.961 36.081 33.4358 36.081 35.0958V46.5582C36.9981 46.5582 37.9326 46.4743 38.8868 46.2956C39.8345 46.1298 40.8454 45.8025 41.8935 45.3289Z" fill="#231F20"/>
<path d="M52.7798 29.8533C52.0178 29.8533 51.2099 30.258 50.3911 31.0654C49.5766 31.8641 49.1661 32.7059 49.1661 33.5435C49.1661 35.7244 50.8212 37.9183 54.0943 40.0627C55.4961 41.0165 58.2714 42.4568 62.3392 44.345C63.2825 43.966 64.1014 43.3955 64.7848 42.6549C65.4726 41.9164 65.8285 41.0229 65.8285 40.0132C65.8285 37.9183 64.1188 35.6362 60.754 33.2291C57.5967 30.9943 54.9153 29.8533 52.7798 29.8533ZM51.5745 48.4787C50.8562 48.4787 50.0854 48.8899 49.2928 49.7188C48.5002 50.5434 48.094 51.523 48.094 52.6275C48.094 54.9871 49.8867 57.5923 53.4174 60.3976C56.3346 62.7185 59.6077 64.5593 63.1406 65.8532C64.2476 65.3408 65.1822 64.6454 65.9115 63.7735C66.6386 62.9101 67.0142 61.9671 67.0142 60.9983C67.0142 58.4255 64.7826 55.5922 60.3741 52.5758C56.4001 49.8545 53.4371 48.4787 51.5745 48.4787ZM56.9416 71.6835C54.3214 71.6835 51.2012 70.0193 47.677 66.7554C43.9104 63.2697 42.013 59.9498 42.013 56.8947C42.013 55.0539 42.4802 53.4133 43.4126 52.0117C44.5807 50.2054 46.6354 48.4636 49.5067 46.836C47.7163 45.682 46.3079 44.4074 45.3188 43.0467C44.1266 41.4191 43.5174 39.8216 43.5174 38.2822C43.5174 34.7427 45.6245 31.3625 49.7928 28.2191C53.2493 25.6054 56.0988 24.2856 58.2823 24.2856C60.7256 24.2856 63.6079 25.6937 66.8438 28.4603C70.0732 31.2269 71.7218 33.9159 71.7218 36.4564C71.7218 38.2563 71.0209 39.9981 69.63 41.6128C68.7173 42.6829 67.0251 44.134 64.6101 45.9188C67.7915 47.8393 70.0318 49.5121 71.2545 50.89C72.8856 52.8148 73.7197 55.2907 73.7197 58.2618C73.7197 60.8519 71.5034 63.7971 67.1299 67.0223C62.9375 70.1118 59.5072 71.6835 56.9416 71.6835Z" fill="#231F20"/>
<path d="M63.1388 65.7477C59.6299 64.458 56.3765 62.6323 53.4789 60.3243C49.9766 57.5405 48.1905 54.9548 48.1905 52.6274C48.1905 51.5509 48.5901 50.5971 49.3674 49.7898C50.1425 48.9803 50.8849 48.5712 51.5749 48.5712C53.4178 48.5712 56.3568 49.9448 60.3177 52.6532C64.6978 55.6545 66.9185 58.4555 66.9185 60.9982C66.9185 61.9412 66.5538 62.8605 65.8376 63.7174C65.1236 64.5614 64.2196 65.2525 63.1388 65.7477ZM62.3418 44.2416C58.3001 42.3599 55.5467 40.9281 54.1558 39.9851C50.9024 37.8515 49.2604 35.6834 49.2604 33.5434C49.2604 32.7274 49.6665 31.9179 50.4635 31.1299C51.2627 30.3462 52.0422 29.9479 52.7802 29.9479C54.9004 29.9479 57.5599 31.0761 60.6976 33.3044C64.0406 35.6942 65.7263 37.9527 65.7263 40.0131C65.7263 40.9992 65.3856 41.8668 64.7153 42.5924C64.0515 43.3115 63.2502 43.8626 62.3418 44.2416ZM58.2805 24.193C56.0795 24.193 53.2104 25.5171 49.7277 28.148C45.5528 31.3 43.4239 34.7125 43.4239 38.2821C43.4239 39.8452 44.0309 41.462 45.2384 43.0983C46.2166 44.4375 47.5878 45.6926 49.3237 46.8273C46.5092 48.4506 44.4916 50.1708 43.3365 51.96C42.3976 53.3745 41.9194 55.0366 41.9194 56.8946C41.9194 59.982 43.8344 63.3234 47.6097 66.8263C51.1557 70.1053 54.3043 71.7717 56.942 71.7717C59.536 71.7717 62.9838 70.1979 67.1892 67.0997C71.589 63.8573 73.8162 60.8862 73.8162 58.2618C73.8162 55.2734 72.9843 52.7717 71.3335 50.8297C70.1173 49.4604 67.9141 47.8069 64.783 45.908C67.1477 44.1619 68.8006 42.7345 69.7046 41.6709C71.1086 40.0325 71.8139 38.2799 71.8139 36.4585C71.8139 33.8922 70.1654 31.1708 66.9076 28.3827C63.6498 25.6032 60.7566 24.193 58.2805 24.193ZM63.1475 65.9608C64.2852 65.4377 65.2371 64.7293 65.9861 63.8358C66.7372 62.9445 67.1084 61.9972 67.1084 60.9982C67.1084 58.3802 64.8856 55.549 60.4334 52.5004C56.4201 49.7532 53.4637 48.3839 51.5749 48.3839C50.8194 48.3839 50.0465 48.808 49.2233 49.6541C48.411 50.5046 48.0005 51.4971 48.0005 52.6274C48.0005 55.028 49.7844 57.6417 53.361 60.4707C56.3153 62.8282 59.571 64.6518 63.1475 65.9608ZM62.3418 44.4525C63.3157 44.0628 64.152 43.4859 64.8594 42.7237C65.5625 41.9594 65.9184 41.053 65.9184 40.0131C65.9184 37.8795 64.2197 35.5909 60.8134 33.1559C57.6276 30.8845 54.9506 29.7563 52.7802 29.7563C51.9876 29.7563 51.171 30.1675 50.3259 31.0007C49.4853 31.8231 49.0639 32.6757 49.0639 33.5434C49.0639 35.7674 50.7277 37.9699 54.0445 40.1401C55.4572 41.0982 58.2215 42.5342 62.3418 44.4525ZM58.2805 24.3846C60.7173 24.3846 63.5493 25.7711 66.7787 28.5248C70.0059 31.2892 71.6283 33.9395 71.6283 36.4585C71.6283 38.239 70.9318 39.9377 69.5605 41.5568C68.6282 42.6397 66.9184 44.0973 64.4336 45.9273C67.698 47.8801 69.9448 49.5572 71.1785 50.9524C72.8118 52.8685 73.6306 55.3036 73.6306 58.2618C73.6306 60.8346 71.4427 63.7282 67.0735 66.9426C62.879 70.0364 59.5011 71.5844 56.942 71.5844C54.3392 71.5844 51.2714 69.9525 47.7407 66.6907C43.9829 63.205 42.1094 59.9389 42.1094 56.8946C42.1094 55.0646 42.5701 53.4563 43.4916 52.059C44.6794 50.2398 46.7515 48.4915 49.6949 46.8359C47.8433 45.6647 46.4109 44.3815 45.4021 42.9885C44.2078 41.3781 43.6117 39.8064 43.6117 38.2821C43.6117 34.7598 45.6925 31.4313 49.8521 28.2966C53.3043 25.6872 56.1144 24.3846 58.2805 24.3846Z" fill="white"/>
<path d="M47.7316 42.7754L45.7992 40.8657L46.9717 39.2488C46.6704 38.956 46.4193 38.6891 46.2293 38.435C45.6027 37.5587 45.238 36.8332 45.131 36.282C45.0196 35.7287 45.1092 35.2508 45.3886 34.8589L46.0153 33.946L47.4237 36.2368L46.832 37.0937C46.535 37.5157 46.4389 37.8688 46.5787 38.1314C46.6354 38.2434 46.8341 38.5168 47.1922 38.956L48.2796 37.3736L50.1444 39.35L47.7316 42.7754Z" fill="white"/>
<path d="M52.1757 44.2524L52.9007 43.1371C52.7762 43.1479 52.6081 43.1393 52.4006 43.1199C52.1692 43.0747 52.0054 43.0596 51.9268 43.0618C51.5513 43.0596 51.2718 43.2103 51.0731 43.5139C50.7325 44.0371 50.7172 44.3988 51.0294 44.5969C51.4596 44.8789 51.8438 44.7583 52.1757 44.2524ZM54.5601 47.2515C53.8985 47.0534 53.3243 46.8123 52.8461 46.5259C52.1124 46.0716 51.7543 45.6411 51.7718 45.2255C51.2194 45.2987 50.6124 45.1265 49.9486 44.6937C48.704 43.8627 48.3502 43.0467 48.8677 42.2544C49.2455 41.671 50.0577 41.6365 51.3198 42.1446C52.5054 42.6183 53.1823 42.6979 53.3701 42.4138C53.5033 42.2243 53.5426 42.0477 53.5055 41.8992C53.44 41.7011 53.2326 41.4815 52.8766 41.2382C52.2085 40.7732 51.7543 40.7344 51.5032 41.1219C51.4333 41.2253 51.3831 41.419 51.3395 41.714L50.3984 40.8614C50.4508 40.7086 50.5075 40.588 50.5796 40.489C50.9835 39.8711 52.0185 40.1509 53.6998 41.3114C54.523 41.8604 55.0733 42.3535 55.3484 42.7927C55.6257 43.2254 55.6257 43.6603 55.3527 44.078L54.0514 46.0824C53.8985 46.3171 53.9444 46.5173 54.1933 46.6637C54.261 46.7025 54.4008 46.7477 54.5885 46.7864L54.5601 47.2515Z" fill="white"/>
<path d="M61.2192 49.2731C60.5642 50.3948 59.372 50.4572 57.6339 49.4712C55.5771 48.2978 54.9766 46.9802 55.8369 45.5054C56.219 44.8487 56.7955 44.4418 57.5553 44.3019C58.4506 44.1146 59.4506 44.3406 60.5511 44.9714C62.0097 45.7982 62.4704 46.6809 61.9289 47.5981L60.6428 47.3526C60.8175 47.0813 60.9223 46.9177 60.9485 46.879C61.2913 46.2912 61.1581 45.8348 60.5598 45.4925C59.9965 45.1717 59.4615 45.2685 58.944 45.781C58.7213 45.9963 58.444 46.386 58.1056 46.9651C57.8195 47.4474 57.6558 47.8155 57.6143 48.0566C57.5335 48.5906 57.7715 49.0126 58.3196 49.3183C59.158 49.8006 59.7978 49.6606 60.2389 48.8985C60.3306 48.7542 60.3983 48.5648 60.4681 48.3322L61.3241 49.0944L61.2192 49.2731Z" fill="white"/>
<path d="M65.8589 51.8782C66.8088 50.7092 67.0468 49.9449 66.5948 49.5853C66.1275 49.2128 65.4244 49.6198 64.4768 50.7845C63.5335 51.9558 63.2911 52.7222 63.7562 53.0904C64.2169 53.4499 64.9178 53.0408 65.8589 51.8782ZM68.0337 53.5812C66.8852 54.9979 65.3611 54.957 63.4549 53.4585C61.5574 51.96 61.184 50.5068 62.3194 49.0944C63.468 47.6756 64.9899 47.7187 66.8939 49.2107C68.7979 50.7113 69.1757 52.1667 68.0337 53.5812Z" fill="white"/>
<path d="M71.2567 57.3016C71.4598 57.1293 71.5952 56.9657 71.6541 56.8064C71.7327 56.5459 71.6803 56.2186 71.4969 55.8246L71.3113 55.4629L70.0252 56.5567L70.2065 56.9162C70.4969 57.5212 70.8418 57.6547 71.2567 57.3016ZM69.6846 58.8646C69.9073 58.6709 70.0471 58.4685 70.0973 58.2575C70.1759 57.9582 70.0929 57.547 69.8374 57.0432L69.713 56.8064L68.2871 58.0013L68.4029 58.2381C68.6671 58.7376 68.9051 59.0261 69.1212 59.0929C69.2697 59.1338 69.4466 59.0541 69.6846 58.8646ZM70.724 61.6312C70.1104 62.1415 69.5012 61.4762 68.7806 59.728L66.6255 56.0076L70.32 52.9073L72.1956 56.3284C72.8834 58.1305 72.855 59.3512 72.2175 59.8959C71.8266 60.2296 71.4008 59.8959 70.9226 58.9357L70.9052 58.9508C71.2676 60.333 71.1934 61.2437 70.724 61.6312Z" fill="white"/>
</svg>
