<svg width="340" height="362" viewBox="0 0 340 362" fill="none" xmlns="http://www.w3.org/2000/svg">
<path d="M75.0503 42.0089C74.4754 41.7731 73.8135 41.9036 73.3737 42.3388L45.2226 70.1902C45.0746 70.3366 44.9631 70.5056 44.888 70.6858C44.8143 70.862 44.7732 71.055 44.772 71.2573C44.772 71.2581 44.772 71.2588 44.772 71.2594C44.772 71.2598 44.772 71.2599 44.772 71.2601C44.772 71.2607 44.772 71.2611 44.772 71.2617C44.772 71.2622 44.772 71.2625 44.772 71.2629C44.772 71.2634 44.772 71.2636 44.772 71.264C44.772 71.2648 44.772 71.2655 44.772 71.2664C44.772 81.5719 36.2978 89.9558 25.8815 89.9558C17.7182 89.9558 11.0769 83.3851 11.0769 75.3088C11.0769 69.0154 16.252 63.8956 22.6129 63.8956C27.5322 63.8956 31.534 67.855 31.534 72.7217C31.534 76.4473 28.4705 79.4782 24.7048 79.4782C21.8618 79.4782 19.5491 77.1899 19.5491 74.3774C19.5491 72.2952 21.2614 70.6011 23.366 70.6011C24.2155 70.6011 24.9045 69.9197 24.9045 69.0791C24.9045 68.2384 24.2155 67.557 23.366 67.557C19.5648 67.557 16.4722 70.6167 16.4722 74.3774C16.4722 78.8686 20.1652 82.5224 24.7048 82.5224C27.3892 82.5224 29.8275 81.4606 31.6134 79.7391C31.6463 79.7116 31.6783 79.6825 31.7094 79.6519L59.8606 51.8005C61.7315 49.9493 62.762 47.4883 62.762 44.8704C62.762 38.3252 57.3797 33 50.764 33C46.8608 33 43.1911 34.5038 40.4311 37.2344L12.28 65.0859C12.2432 65.1222 12.2086 65.1601 12.1763 65.1991C9.59431 67.8078 8 71.3779 8 75.3088C8 85.0638 16.0217 93 25.8815 93C31.9106 93 37.3797 90.5851 41.3529 86.6809C41.3997 86.6444 41.4448 86.6048 41.4878 86.562L69.5658 58.7831C73.7149 54.6782 76 49.2203 76 43.4152C76 42.7995 75.6251 42.2445 75.0503 42.0089ZM42.6068 39.387C44.7855 37.2314 47.6825 36.0442 50.7638 36.0442C55.6831 36.0442 59.6849 40.0036 59.6849 44.8704C59.6849 46.6752 58.9746 48.3718 57.6846 49.6481L34.6086 72.4785C34.4774 66.0448 29.1468 60.8513 22.6129 60.8513C21.9992 60.8513 21.3935 60.889 20.7995 60.9621L42.6068 39.387ZM67.3902 56.6305L47.1709 76.6345C47.5625 75.1158 47.7917 73.5327 47.8397 71.9063L72.4631 47.5449C71.6885 50.9598 69.9526 54.0953 67.3902 56.6305Z" fill="url(#paint0_linear_1365_72418)" fill-opacity="0.5"/>
<path d="M212.147 332.074L219.957 324.305L221.348 324.745C221.883 324.914 222.468 324.773 222.864 324.378L256.204 291.21C258.007 289.416 259 287.032 259 284.495C259 281.959 258.007 279.575 256.204 277.781C254.402 275.988 252.005 275 249.455 275C246.906 275 244.509 275.988 242.706 277.781L241.397 279.084C241.394 279.087 241.391 279.09 241.388 279.093C241.385 279.096 241.382 279.099 241.379 279.102L209.366 310.949C208.969 311.344 208.827 311.926 208.997 312.458L209.44 313.841L205.973 317.289C205.958 317.304 205.944 317.319 205.929 317.334L197.44 325.779C197.043 326.174 196.901 326.756 197.071 327.288L201.123 339.96C201.282 340.456 201.69 340.834 202.199 340.958C202.317 340.986 202.436 341 202.554 341C202.947 341 203.33 340.846 203.615 340.563L212.103 332.119C212.118 332.104 212.133 332.089 212.147 332.074ZM244.829 279.893C246.065 278.663 247.708 277.986 249.455 277.986C251.203 277.986 252.846 278.663 254.082 279.893C255.317 281.122 255.998 282.757 255.998 284.495C255.998 286.234 255.317 287.868 254.082 289.098L253.825 289.353L244.572 280.148L244.829 279.893ZM242.45 282.26L251.702 291.465L221.388 321.623L214.368 319.401L212.677 314.115C212.661 313.882 212.59 313.652 212.464 313.446L212.135 312.418L242.45 282.26ZM210.784 325.237C210.532 324.451 209.688 324.017 208.898 324.267C208.108 324.517 207.672 325.357 207.923 326.142L209.357 330.627L203.236 336.716L200.208 327.249L206.329 321.159L206.569 321.91C206.821 322.696 207.665 323.13 208.455 322.88C209.245 322.63 209.681 321.791 209.43 321.005L208.719 318.781L210.464 317.045L211.743 321.043C211.891 321.504 212.254 321.866 212.718 322.013L216.737 323.285L211.747 328.249L210.784 325.237Z" fill="url(#paint1_linear_1365_72418)" fill-opacity="0.5"/>
<path d="M235.972 338.013H231.735C230.906 338.013 230.234 338.682 230.234 339.507C230.234 340.331 230.906 341 231.735 341H235.972C236.801 341 237.473 340.331 237.473 339.507C237.473 338.682 236.801 338.013 235.972 338.013Z" fill="url(#paint2_linear_1365_72418)" fill-opacity="0.5"/>
<path d="M257.499 338.013H253.263C252.434 338.013 251.762 338.682 251.762 339.507C251.762 340.331 252.434 341 253.263 341H257.499C258.328 341 259 340.331 259 339.507C259 338.682 258.328 338.013 257.499 338.013Z" fill="url(#paint3_linear_1365_72418)" fill-opacity="0.5"/>
<path d="M246.735 338.013H242.499C241.67 338.013 240.998 338.682 240.998 339.507C240.998 340.331 241.67 341 242.499 341H246.735C247.564 341 248.236 340.331 248.236 339.507C248.236 338.682 247.564 338.013 246.735 338.013Z" fill="url(#paint4_linear_1365_72418)" fill-opacity="0.5"/>
<path d="M220.787 317.061C221.873 317.061 222.895 316.64 223.663 315.876L245.501 294.15C246.269 293.386 246.692 292.37 246.692 291.29C246.692 290.209 246.269 289.193 245.501 288.429C244.733 287.665 243.712 287.244 242.626 287.244C241.54 287.244 240.518 287.665 239.75 288.429L234.192 293.959C234.188 293.963 234.184 293.966 234.18 293.97C234.177 293.974 234.173 293.978 234.169 293.982L229.876 298.252C229.873 298.256 229.869 298.259 229.866 298.263C229.862 298.266 229.858 298.27 229.855 298.273L217.912 310.155C217.144 310.919 216.721 311.935 216.721 313.015C216.721 314.096 217.144 315.112 217.912 315.876C218.68 316.64 219.701 317.061 220.787 317.061ZM241.873 290.541C241.873 290.541 241.873 290.541 241.873 290.541C242.074 290.341 242.341 290.231 242.626 290.231C242.91 290.231 243.177 290.341 243.379 290.541C243.58 290.741 243.69 291.007 243.69 291.29C243.69 291.573 243.58 291.839 243.378 292.039L238.87 296.524L237.364 295.026L241.873 290.541ZM235.242 297.138L236.747 298.636L234.555 300.816L233.05 299.319L235.242 297.138ZM220.034 312.267L230.927 301.43L232.433 302.928L221.54 313.764C221.339 313.964 221.072 314.075 220.787 314.075C220.503 314.075 220.235 313.964 220.034 313.764C219.833 313.564 219.723 313.298 219.723 313.015C219.723 312.732 219.833 312.467 220.034 312.267Z" fill="url(#paint5_linear_1365_72418)" fill-opacity="0.5"/>
<path d="M214.445 338.013H210.209C209.38 338.013 208.708 338.682 208.708 339.507C208.708 340.331 209.38 341 210.209 341H214.445C215.274 341 215.946 340.331 215.946 339.507C215.946 338.682 215.274 338.013 214.445 338.013Z" fill="url(#paint6_linear_1365_72418)" fill-opacity="0.5"/>
<path d="M225.208 338.013H220.972C220.143 338.013 219.471 338.682 219.471 339.507C219.471 340.331 220.143 341 220.972 341H225.208C226.037 341 226.709 340.331 226.709 339.507C226.709 338.682 226.037 338.013 225.208 338.013Z" fill="url(#paint7_linear_1365_72418)" fill-opacity="0.5"/>
<path d="M303.332 180.259H299.173L302.775 178.179C303.852 177.557 304.623 176.55 304.946 175.343C305.27 174.137 305.105 172.879 304.483 171.802L297.281 159.327C296.659 158.25 295.652 157.479 294.445 157.155C293.238 156.832 291.981 156.996 290.904 157.618L287.302 159.698L289.382 156.096C290.003 155.019 290.168 153.761 289.844 152.555C289.521 151.348 288.75 150.341 287.673 149.719L275.198 142.517C272.969 141.23 270.108 141.996 268.821 144.225L268.506 144.771C268.076 145.515 268.331 146.467 269.075 146.897C269.82 147.326 270.771 147.072 271.201 146.327L271.516 145.781C271.945 145.038 272.899 144.782 273.642 145.211L286.117 152.414C286.474 152.62 286.73 152.956 286.839 153.36C286.947 153.764 286.893 154.183 286.687 154.54L269.417 184.451C269.408 184.466 269.4 184.481 269.392 184.495L268.506 186.03C268.369 186.266 268.297 186.535 268.297 186.808V187.449C268.297 188.005 268.594 188.519 269.075 188.797C269.316 188.936 269.585 189.005 269.853 189.005C270.122 189.005 270.391 188.936 270.631 188.797L272.256 187.859C272.613 187.652 272.874 187.312 272.981 186.914C273.088 186.515 273.032 186.091 272.825 185.733L272.548 185.253L274.721 181.488L276.086 183.851C276.374 184.35 276.897 184.629 277.435 184.629C277.699 184.629 277.966 184.562 278.211 184.42L284.166 180.982C284.524 180.776 284.784 180.436 284.891 180.037C284.998 179.639 284.942 179.214 284.736 178.857L281.297 172.902C281.091 172.544 280.751 172.283 280.353 172.177C280.276 172.156 280.199 172.144 280.122 172.135L284.19 165.088L292.46 160.313C292.817 160.107 293.236 160.053 293.64 160.161C294.044 160.27 294.38 160.526 294.586 160.883L301.788 173.358C301.994 173.715 302.048 174.134 301.94 174.538C301.832 174.942 301.576 175.278 301.219 175.484L271.309 192.753C271.293 192.761 271.277 192.77 271.262 192.779L269.075 194.042C268.594 194.32 268.297 194.833 268.297 195.389V195.568C268.297 196.427 268.994 197.124 269.853 197.124H272.062C272.921 197.124 273.618 196.427 273.618 195.568V195.013L277.382 192.839V195.568C277.382 196.427 278.079 197.124 278.938 197.124H285.815C286.674 197.124 287.371 196.427 287.371 195.568V188.691C287.371 188.177 287.12 187.722 286.736 187.439L293.782 183.371H303.332C304.19 183.371 304.888 184.069 304.888 184.927V199.332C304.888 200.19 304.19 200.888 303.332 200.888H269.202C268.343 200.888 267.646 201.585 267.646 202.444C267.646 203.303 268.343 204 269.202 204H303.332C305.906 204 308 201.906 308 199.332V184.927C308 182.353 305.906 180.259 303.332 180.259ZM279.381 175.805L281.263 179.065L278.003 180.947L276.518 178.376L277.314 176.999L279.381 175.805ZM284.259 190.247V194.012H280.495V191.043L281.872 190.247H284.259V190.247Z" fill="url(#paint8_linear_1365_72418)" fill-opacity="0.5"/>
<path d="M299.567 197.123C300.426 197.123 301.123 196.427 301.123 195.567V188.691C301.123 187.832 300.426 187.135 299.567 187.135H292.691C291.832 187.135 291.135 187.832 291.135 188.691V195.567C291.135 196.427 291.832 197.123 292.691 197.123H299.567ZM294.247 190.247H298.011V194.012H294.247V190.247Z" fill="url(#paint9_linear_1365_72418)" fill-opacity="0.5"/>
<path d="M290.121 177.544L296.077 174.106C296.434 173.9 296.695 173.56 296.802 173.161C296.908 172.762 296.852 172.338 296.646 171.98L293.208 166.025C292.778 165.281 291.826 165.026 291.082 165.456L285.127 168.894C284.77 169.1 284.509 169.44 284.402 169.839C284.295 170.238 284.351 170.662 284.558 171.02L287.996 176.975C288.284 177.474 288.807 177.753 289.345 177.753C289.609 177.753 289.876 177.686 290.121 177.544ZM288.031 170.811L291.291 168.929L293.173 172.189L289.913 174.071L288.031 170.811Z" fill="url(#paint10_linear_1365_72418)" fill-opacity="0.5"/>
<path d="M268.505 172.211C268.076 172.956 268.331 173.907 269.076 174.337L269.105 174.353C269.349 174.494 269.617 174.562 269.88 174.562C270.418 174.562 270.941 174.283 271.229 173.783L274.668 167.828C274.874 167.471 274.93 167.046 274.823 166.648C274.716 166.249 274.456 165.909 274.098 165.703L270.631 163.701C269.887 163.271 268.935 163.527 268.506 164.271C268.076 165.015 268.331 165.966 269.075 166.396L271.195 167.62L268.695 171.949C268.624 172.028 268.56 172.116 268.505 172.211Z" fill="url(#paint11_linear_1365_72418)" fill-opacity="0.5"/>
<path d="M270.025 159.004L275.98 162.442C276.225 162.584 276.493 162.651 276.757 162.651C277.295 162.651 277.818 162.372 278.106 161.873L281.544 155.918C281.75 155.56 281.807 155.136 281.7 154.737C281.593 154.338 281.332 153.999 280.975 153.792L275.019 150.354C274.275 149.924 273.323 150.179 272.894 150.923L269.456 156.878C269.249 157.236 269.193 157.66 269.3 158.059C269.407 158.458 269.668 158.798 270.025 159.004ZM274.811 153.827L278.071 155.709L276.189 158.969L272.929 157.087L274.811 153.827Z" fill="url(#paint12_linear_1365_72418)" fill-opacity="0.5"/>
<path d="M262.073 139H247.668C245.094 139 243 141.094 243 143.668V199.332C243 201.906 245.094 204 247.668 204H262.073C264.647 204 266.741 201.906 266.741 199.332V143.668C266.741 141.094 264.647 139 262.073 139ZM263.629 199.332C263.629 200.19 262.931 200.888 262.073 200.888H247.668C246.81 200.888 246.112 200.19 246.112 199.332V143.668C246.112 142.81 246.81 142.112 247.668 142.112H262.073C262.931 142.112 263.629 142.81 263.629 143.668V199.332Z" fill="url(#paint13_linear_1365_72418)" fill-opacity="0.5"/>
<path d="M254.871 189.017C253.155 189.017 251.759 190.413 251.759 192.129C251.759 193.845 253.155 195.241 254.871 195.241C256.587 195.241 257.983 193.845 257.983 192.129C257.983 190.413 256.587 189.017 254.871 189.017Z" fill="url(#paint14_linear_1365_72418)" fill-opacity="0.5"/>
<path d="M174.729 92.5156L160.052 77.3669C160.009 77.3218 159.961 77.2804 159.912 77.2412C159.902 77.2337 159.893 77.2262 159.883 77.2191C159.836 77.1844 159.787 77.1516 159.735 77.1227C159.734 77.1221 159.733 77.1216 159.732 77.121C159.694 77.1003 159.655 77.0812 159.615 77.0639C159.603 77.0589 159.592 77.0556 159.58 77.0509C159.565 77.0451 159.551 77.0398 159.536 77.0346C159.488 77.0176 159.44 77.0032 159.391 76.992C159.385 76.9904 159.378 76.9884 159.372 76.9869C159.314 76.9746 159.257 76.9668 159.199 76.9622C159.188 76.9614 159.178 76.9611 159.167 76.9605C159.115 76.9576 159.063 76.9576 159.012 76.9609C159.004 76.9614 158.996 76.9614 158.987 76.9621C158.93 76.9668 158.874 76.9756 158.818 76.9875C158.805 76.9903 158.792 76.9937 158.779 76.9969C158.729 77.0093 158.679 77.0244 158.631 77.0425C158.625 77.0447 158.619 77.0456 158.613 77.0479L127.069 89.3668C127.067 89.368 127.064 89.3694 127.061 89.3706C127.049 89.3755 127.037 89.3815 127.025 89.3869C126.837 89.4683 126.677 89.5876 126.551 89.7336C126.548 89.7364 126.546 89.7387 126.543 89.7416C126.486 89.8086 126.436 89.8807 126.394 89.9569C126.391 89.9616 126.389 89.9666 126.387 89.9713C126.369 90.005 126.352 90.0394 126.336 90.0745C126.336 90.0761 126.335 90.0775 126.334 90.0793L122.43 99.2133C122.22 99.7034 122.325 100.271 122.696 100.654C123.067 101.037 123.631 101.16 124.128 100.966L132.561 97.6727L140.679 106.051L130.532 129.789C130.525 129.806 130.52 129.823 130.513 129.839C130.507 129.856 130.501 129.872 130.495 129.888C130.482 129.928 130.47 129.968 130.461 130.009C130.459 130.015 130.457 130.021 130.456 130.028C130.455 130.029 130.455 130.031 130.455 130.032C130.444 130.084 130.436 130.136 130.431 130.187C130.431 130.193 130.431 130.198 130.43 130.203C130.427 130.248 130.426 130.293 130.427 130.338C130.427 130.351 130.428 130.364 130.428 130.377C130.43 130.415 130.434 130.452 130.439 130.489C130.441 130.503 130.442 130.517 130.445 130.53C130.452 130.572 130.461 130.613 130.472 130.653C130.474 130.661 130.475 130.668 130.477 130.676C130.491 130.723 130.507 130.769 130.526 130.814C130.531 130.827 130.537 130.838 130.543 130.85C130.558 130.884 130.574 130.917 130.591 130.949C130.599 130.962 130.607 130.976 130.615 130.99C130.634 131.022 130.655 131.053 130.677 131.083C130.684 131.093 130.691 131.104 130.698 131.114C130.73 131.155 130.764 131.195 130.801 131.233L138.662 139.347C139.033 139.73 139.597 139.853 140.094 139.659L171.63 127.343C171.714 127.311 171.795 127.27 171.872 127.22C171.879 127.216 171.885 127.21 171.892 127.206C171.921 127.186 171.95 127.167 171.978 127.145C172.012 127.117 172.045 127.088 172.077 127.058C172.109 127.027 172.139 126.995 172.167 126.961C172.19 126.934 172.211 126.906 172.231 126.878C172.236 126.871 172.242 126.864 172.246 126.857C172.298 126.782 172.342 126.702 172.377 126.619L182.866 102.08C183.075 101.59 182.971 101.022 182.6 100.639L174.738 92.5256C174.735 92.5223 174.732 92.5189 174.729 92.5156ZM167.046 105.842L158.604 109.139C157.923 109.404 157.587 110.172 157.853 110.853C158.119 111.534 158.886 111.87 159.567 111.604L165.588 109.253L162.294 116.96L147.81 122.616L151.104 114.91L155.852 113.055C156.533 112.789 156.87 112.022 156.604 111.341C156.338 110.66 155.57 110.324 154.889 110.59L150.443 112.326L144.577 106.271L171.329 95.8236L167.046 105.842ZM148.543 114.168L144.354 123.966L134.205 127.929L142.676 108.113L148.543 114.168ZM128.549 91.6302L156.638 80.6607L154.192 86.3841L132.427 94.8839C132.423 94.8854 132.419 94.8871 132.414 94.8887L126.103 97.3536L128.549 91.6302ZM155.662 88.6512C155.831 88.5868 155.983 88.4889 156.111 88.3652C156.236 88.2442 156.337 88.0985 156.407 87.935L159.529 80.631L171.45 92.9347L142.579 104.21L135.235 96.6287L155.662 88.6512ZM134.084 130.818L162.954 119.543L168.821 125.598L139.951 136.873L134.084 130.818ZM180.086 101.849L170.722 123.757L164.855 117.702L174.22 95.7937L180.086 101.849Z" fill="url(#paint15_linear_1365_72418)" fill-opacity="0.5"/>
<path d="M64.5068 209.507H56.2471C55.5059 197.848 46.1516 188.494 34.4932 187.753V179.493C34.4932 178.669 33.8247 178 33 178C32.1753 178 31.5068 178.669 31.5068 179.493V187.753C19.8484 188.494 10.4942 197.848 9.75292 209.507H1.49321C0.668511 209.507 0 210.175 0 211C0 211.825 0.668511 212.493 1.49321 212.493H9.75292C10.4942 224.152 19.8484 233.506 31.5068 234.247V242.507C31.5068 243.331 32.1753 244 33 244C33.8247 244 34.4932 243.331 34.4932 242.507V234.247C46.1516 233.506 55.5059 224.152 56.2471 212.493H64.5068C65.3315 212.493 66 211.825 66 211C66 210.175 65.3315 209.507 64.5068 209.507ZM53.2548 209.507H49.4595C48.7465 201.583 42.4174 195.254 34.4934 194.54V190.745C44.5043 191.476 52.5238 199.496 53.2548 209.507ZM31.5068 209.507H19.5414C20.233 203.231 25.2305 198.233 31.5068 197.542V209.507ZM31.5068 212.493V224.458C25.2307 223.767 20.233 218.769 19.5414 212.493H31.5068ZM34.4932 212.493H46.4585C45.7668 218.769 40.7693 223.767 34.4932 224.458V212.493ZM34.4932 209.507V197.542C40.7693 198.233 45.7668 203.231 46.4585 209.507H34.4932ZM31.5068 190.745V194.54C23.5826 195.253 17.2535 201.583 16.5405 209.507H12.7452C13.4762 199.496 21.4957 191.476 31.5068 190.745ZM12.7452 212.493H16.5405C17.2535 220.417 23.5826 226.746 31.5068 227.46V231.255C21.4957 230.524 13.4762 222.504 12.7452 212.493ZM34.4932 231.255V227.46C42.4174 226.747 48.7464 220.417 49.4594 212.493H53.2547C52.5238 222.504 44.5043 230.524 34.4932 231.255Z" fill="url(#paint16_linear_1365_72418)" fill-opacity="0.5"/>
<path d="M76.1616 354.662L48.4948 339.19C47.8618 338.836 47.6397 338.029 47.9986 337.387L63.013 310.538L58.513 310.24C57.856 310.196 57.3378 309.67 57.2999 309.007L56.6707 298.017C56.6334 297.366 57.0719 296.779 57.7049 296.632L73.3148 293.011C73.5293 292.961 73.7521 292.966 73.963 293.025L82.0231 295.283C82.586 295.441 82.9732 295.955 82.9736 296.546C82.9758 296.696 83.0749 300.469 87.0612 302.698C91.0474 304.928 94.3139 303.037 94.4509 302.955C94.9541 302.647 95.5873 302.712 96.0165 303.109L102.16 308.794C102.321 308.943 102.442 309.13 102.512 309.339L107.599 324.534C107.805 325.15 107.535 325.831 106.96 326.14L97.2672 331.358C96.6831 331.673 95.9634 331.507 95.5822 330.97L92.9719 327.292L77.9576 354.14C77.5987 354.782 76.7945 355.016 76.1616 354.662ZM50.9407 337.506L76.3153 351.696L91.702 324.182C91.9243 323.784 92.3317 323.526 92.7817 323.498C93.2317 323.47 93.6623 323.675 93.9229 324.042L97.0664 328.471L104.743 324.339L100.12 310.532L94.87 305.674C93.2632 306.335 89.7537 307.256 85.7612 305.023C81.7686 302.79 80.7152 299.318 80.4377 297.603L73.5502 295.673L59.3662 298.963L59.8645 307.667L65.2837 308.026C65.7327 308.056 66.1333 308.316 66.3448 308.714C66.5564 309.112 66.5498 309.594 66.3275 309.992L50.9407 337.506Z" fill="url(#paint17_linear_1365_72418)" fill-opacity="0.5"/>
<path d="M76.8709 336.45L76.1832 336.065C75.5502 335.711 75.328 334.904 75.687 334.262C75.9683 333.759 76.5229 333.507 77.0543 333.591C77.4639 333.234 78.065 333.15 78.5609 333.428C79.1939 333.782 79.4161 334.589 79.0571 335.231L78.6671 335.928C78.3081 336.57 77.5039 336.804 76.8709 336.45Z" fill="url(#paint18_linear_1365_72418)" fill-opacity="0.5"/>
<path d="M72.9668 334.267L71.8639 333.65C71.2309 333.296 71.0087 332.488 71.3677 331.846C71.7267 331.205 72.5309 330.971 73.1639 331.325L74.2668 331.942C74.8999 332.296 75.122 333.103 74.763 333.745C74.404 334.387 73.5998 334.621 72.9668 334.267ZM68.6468 331.851L67.5439 331.234C66.9109 330.88 66.6888 330.073 67.0477 329.431C67.4067 328.789 68.2109 328.555 68.8439 328.909L69.9469 329.526C70.5799 329.88 70.802 330.687 70.443 331.329C70.084 331.971 69.2799 332.205 68.6468 331.851Z" fill="url(#paint19_linear_1365_72418)" fill-opacity="0.5"/>
<path d="M64.3279 329.435L63.6402 329.05C63.0072 328.696 62.7851 327.889 63.1441 327.247L63.5341 326.55C63.8931 325.908 64.6972 325.674 65.3302 326.028C65.8262 326.306 66.0699 326.861 65.9795 327.398C66.3298 327.806 66.4053 328.411 66.1241 328.914C65.7651 329.556 64.9609 329.789 64.3279 329.435Z" fill="url(#paint20_linear_1365_72418)" fill-opacity="0.5"/>
<path d="M66.0337 324.77C65.4007 324.416 65.1786 323.609 65.5375 322.967L66.2244 321.739C66.5834 321.097 67.3874 320.864 68.0204 321.218C68.6534 321.572 68.8755 322.379 68.5165 323.021L67.8297 324.249C67.4707 324.891 66.6666 325.124 66.0337 324.77ZM68.7239 319.96C68.0909 319.606 67.8688 318.798 68.2278 318.156L68.9147 316.928C69.2736 316.286 70.0777 316.053 70.7107 316.407C71.3437 316.761 71.5658 317.568 71.2068 318.21L70.5199 319.438C70.161 320.08 69.3569 320.314 68.7239 319.96ZM71.4142 315.149C70.7812 314.795 70.5591 313.988 70.9181 313.346L71.6049 312.117C71.9639 311.476 72.768 311.242 73.4009 311.596C74.0339 311.95 74.256 312.757 73.8971 313.399L73.2102 314.627C72.8512 315.269 72.0472 315.503 71.4142 315.149Z" fill="url(#paint21_linear_1365_72418)" fill-opacity="0.5"/>
<path d="M74.1041 310.339C73.4711 309.985 73.2489 309.178 73.6079 308.536L73.9979 307.838C74.3569 307.196 75.1611 306.963 75.7941 307.317L76.4818 307.701C77.1148 308.055 77.3369 308.863 76.978 309.505C76.6967 310.008 76.1421 310.26 75.6107 310.175C75.2011 310.533 74.6 310.616 74.1041 310.339Z" fill="url(#paint22_linear_1365_72418)" fill-opacity="0.5"/>
<path d="M83.8213 314.857L82.7184 314.24C82.0853 313.886 81.8632 313.079 82.2222 312.437C82.5812 311.795 83.3854 311.562 84.0184 311.916L85.1213 312.532C85.7544 312.886 85.9765 313.694 85.6175 314.336C85.2585 314.978 84.4543 315.211 83.8213 314.857ZM79.5013 312.441L78.3984 311.825C77.7654 311.471 77.5432 310.663 77.9022 310.021C78.2612 309.379 79.0654 309.146 79.6984 309.5L80.8013 310.117C81.4344 310.471 81.6565 311.278 81.2975 311.92C80.9385 312.562 80.1344 312.795 79.5013 312.441Z" fill="url(#paint23_linear_1365_72418)" fill-opacity="0.5"/>
<path d="M87.3352 317.738C86.8393 317.46 86.5956 316.905 86.686 316.368C86.3357 315.96 86.2601 315.355 86.5414 314.852C86.9004 314.211 87.7045 313.977 88.3376 314.331L89.0253 314.716C89.6583 315.07 89.8804 315.877 89.5214 316.519L89.1314 317.216C88.7724 317.858 87.9683 318.092 87.3352 317.738Z" fill="url(#paint24_linear_1365_72418)" fill-opacity="0.5"/>
<path d="M79.2646 332.17C78.6316 331.816 78.4095 331.008 78.7685 330.367L79.4554 329.138C79.8143 328.496 80.6184 328.263 81.2514 328.617C81.8843 328.971 82.1065 329.778 81.7475 330.42L81.0606 331.648C80.7017 332.29 79.8976 332.524 79.2646 332.17ZM81.9549 327.359C81.3219 327.005 81.0998 326.198 81.4588 325.556L82.1456 324.328C82.5046 323.686 83.3087 323.452 83.9416 323.806C84.5746 324.16 84.7967 324.967 84.4378 325.609L83.7509 326.838C83.3919 327.48 82.5879 327.713 81.9549 327.359ZM84.6451 322.548C84.0122 322.194 83.7901 321.387 84.149 320.745L84.8359 319.517C85.1949 318.875 85.9989 318.642 86.6319 318.996C87.2649 319.349 87.487 320.157 87.128 320.799L86.4412 322.027C86.0822 322.669 85.2781 322.902 84.6451 322.548Z" fill="url(#paint25_linear_1365_72418)" fill-opacity="0.5"/>
<path d="M319.273 19.3264L320.999 14.8738C321.25 14.2258 320.928 13.4969 320.281 13.246L287.271 0.4543C286.623 0.20339 285.895 0.525464 285.644 1.17343L268.121 46.3937C267.869 47.0417 268.191 47.7706 268.838 48.0215L268.986 48.0788C268.573 50.7425 270.048 53.4342 272.66 54.4465L294.695 62.9855C297.307 63.9977 300.211 63.0025 301.7 60.7558L301.848 60.8132C302.496 61.0641 303.224 60.742 303.475 60.094L306.872 51.3272C315.399 53.9377 324.654 49.5349 327.929 41.0836C331.204 32.6323 327.332 23.1429 319.273 19.3264ZM306.593 48.5686C305.946 48.3177 305.217 48.6398 304.966 49.2878L301.585 58.0121L283.71 51.0854C283.063 50.8345 282.334 51.1566 282.083 51.8046C281.832 52.4525 282.153 53.1814 282.801 53.4323L299.254 59.8081C298.347 60.7712 296.912 61.1451 295.605 60.6387L273.569 52.0996C272.262 51.593 271.454 50.35 271.432 49.0267L278.264 51.674C278.911 51.9249 279.64 51.6029 279.891 50.9549C280.142 50.3069 279.821 49.5781 279.173 49.3272L270.92 46.1289L287.534 3.25547L318.199 15.1386L316.49 19.5487C316.239 20.1967 316.56 20.9255 317.208 21.1764C324.753 24.1002 328.51 32.6229 325.584 40.175C322.657 47.7271 314.138 51.4925 306.593 48.5686Z" fill="url(#paint26_linear_1365_72418)" fill-opacity="0.5"/>
<path d="M316.27 23.5948C315.623 23.3439 314.895 23.666 314.643 24.3139L306.812 44.5225C306.561 45.1704 306.883 45.8993 307.53 46.1502C313.743 48.5577 320.758 45.4572 323.168 39.2387C325.577 33.0203 322.483 26.0023 316.27 23.5948ZM309.642 44.1809L316.504 26.4728C320.648 28.7417 322.577 33.8034 320.823 38.3301C319.069 42.8569 314.233 45.2973 309.642 44.1809Z" fill="url(#paint27_linear_1365_72418)" fill-opacity="0.5"/>
<path d="M298.738 43.1851C298.23 42.9886 297.673 43.1436 297.335 43.5317C296.821 43.5205 296.331 43.828 296.134 44.3357C295.883 44.9837 296.204 45.7126 296.852 45.9635L297.555 46.2361C298.203 46.487 298.931 46.1649 299.182 45.5169L299.455 44.8129C299.706 44.1648 299.385 43.436 298.738 43.1851Z" fill="url(#paint28_linear_1365_72418)" fill-opacity="0.5"/>
<path d="M293.877 42.1113L292.545 41.5953C291.898 41.3444 291.169 41.6665 290.918 42.3144C290.667 42.9624 290.988 43.6912 291.636 43.9422L292.968 44.4582C293.615 44.7091 294.344 44.387 294.595 43.7391C294.846 43.0911 294.525 42.3622 293.877 42.1113Z" fill="url(#paint29_linear_1365_72418)" fill-opacity="0.5"/>
<path d="M288.661 40.0901L287.329 39.574C286.682 39.3231 285.953 39.6452 285.702 40.2932C285.451 40.9412 285.772 41.67 286.42 41.9209L287.751 42.437C288.399 42.6879 289.127 42.3658 289.378 41.7178C289.63 41.0699 289.308 40.341 288.661 40.0901Z" fill="url(#paint30_linear_1365_72418)" fill-opacity="0.5"/>
<path d="M283.817 38.2933C283.829 37.7786 283.522 37.2887 283.015 37.0921C282.367 36.8412 281.639 37.1633 281.388 37.8113L281.115 38.5153C280.864 39.1633 281.185 39.8921 281.832 40.143L282.536 40.4156C283.183 40.6665 283.912 40.3445 284.163 39.6965C284.36 39.1887 284.205 38.6315 283.817 38.2933Z" fill="url(#paint31_linear_1365_72418)" fill-opacity="0.5"/>
<path d="M285.961 29.4889C286.609 29.7398 287.337 29.4177 287.588 28.7697L288.153 27.3136C288.404 26.6656 288.083 25.9368 287.435 25.6859C286.788 25.435 286.059 25.757 285.808 26.405L285.244 27.8611C284.993 28.5091 285.314 29.2379 285.961 29.4889Z" fill="url(#paint32_linear_1365_72418)" fill-opacity="0.5"/>
<path d="M288.171 23.7857C288.818 24.0366 289.547 23.7146 289.798 23.0666L290.362 21.6105C290.613 20.9625 290.292 20.2337 289.645 19.9827C288.997 19.7318 288.269 20.0539 288.017 20.7019L287.453 22.158C287.202 22.8061 287.523 23.5348 288.171 23.7857Z" fill="url(#paint33_linear_1365_72418)" fill-opacity="0.5"/>
<path d="M283.751 35.192C284.399 35.4429 285.127 35.1208 285.378 34.4728L285.943 33.0167C286.194 32.3688 285.873 31.6399 285.225 31.389C284.578 31.1381 283.849 31.4602 283.598 32.1081L283.034 33.5642C282.783 34.2123 283.104 34.9411 283.751 35.192Z" fill="url(#paint34_linear_1365_72418)" fill-opacity="0.5"/>
<path d="M292.267 15.3043L291.564 15.0317C290.916 14.7808 290.188 15.1029 289.937 15.7508L289.664 16.4549C289.413 17.1029 289.734 17.8317 290.382 18.0826C290.889 18.2792 291.446 18.1241 291.784 17.736C292.298 17.7473 292.788 17.4398 292.985 16.932C293.236 16.2839 292.915 15.5552 292.267 15.3043Z" fill="url(#paint35_linear_1365_72418)" fill-opacity="0.5"/>
<path d="M297.483 17.3254L296.151 16.8094C295.503 16.5585 294.775 16.8806 294.524 17.5285C294.273 18.1765 294.594 18.9054 295.241 19.1563L296.573 19.6723C297.221 19.9232 297.949 19.6011 298.2 18.9532C298.451 18.3052 298.13 17.5764 297.483 17.3254Z" fill="url(#paint36_linear_1365_72418)" fill-opacity="0.5"/>
<path d="M302.699 19.3467L301.367 18.8306C300.72 18.5797 299.991 18.9018 299.74 19.5498C299.489 20.1977 299.81 20.9266 300.458 21.1775L301.789 21.6936C302.437 21.9445 303.165 21.6224 303.416 20.9744C303.668 20.3264 303.346 19.5976 302.699 19.3467Z" fill="url(#paint37_linear_1365_72418)" fill-opacity="0.5"/>
<path d="M307.286 21.1245L306.583 20.8519C305.936 20.601 305.207 20.923 304.956 21.571C304.759 22.0788 304.914 22.6362 305.301 22.9742C305.29 23.4889 305.597 23.9788 306.104 24.1754C306.752 24.4263 307.48 24.1042 307.731 23.4563L308.004 22.7522C308.255 22.1041 307.934 21.3754 307.286 21.1245Z" fill="url(#paint38_linear_1365_72418)" fill-opacity="0.5"/>
<path d="M303.158 31.7788C302.51 31.5279 301.782 31.8499 301.531 32.4979L300.966 33.954C300.715 34.602 301.037 35.3308 301.684 35.5817C302.331 35.8327 303.06 35.5106 303.311 34.8626L303.875 33.4065C304.126 32.7585 303.805 32.0297 303.158 31.7788Z" fill="url(#paint39_linear_1365_72418)" fill-opacity="0.5"/>
<path d="M305.368 26.0755C304.721 25.8246 303.992 26.1467 303.741 26.7947L303.177 28.2508C302.926 28.8987 303.247 29.6276 303.894 29.8785C304.542 30.1294 305.27 29.8073 305.522 29.1594L306.086 27.7032C306.337 27.0552 306.016 26.3264 305.368 26.0755Z" fill="url(#paint40_linear_1365_72418)" fill-opacity="0.5"/>
<path d="M300.948 37.4818C300.3 37.2309 299.572 37.5529 299.321 38.2009L298.756 39.657C298.505 40.305 298.827 41.0338 299.474 41.2847C300.122 41.5357 300.85 41.2136 301.101 40.5656L301.665 39.1095C301.916 38.4615 301.595 37.7327 300.948 37.4818Z" fill="url(#paint41_linear_1365_72418)" fill-opacity="0.5"/>
<defs>
<linearGradient id="paint0_linear_1365_72418" x1="42" y1="33" x2="42" y2="93" gradientUnits="userSpaceOnUse">
<stop stop-color="#E7E7E7"/>
<stop offset="1" stop-color="#EAEBE6" stop-opacity="0"/>
</linearGradient>
<linearGradient id="paint1_linear_1365_72418" x1="228" y1="275" x2="228" y2="341" gradientUnits="userSpaceOnUse">
<stop stop-color="#E7E7E7"/>
<stop offset="1" stop-color="#EAEBE6" stop-opacity="0"/>
</linearGradient>
<linearGradient id="paint2_linear_1365_72418" x1="233.854" y1="338.013" x2="233.854" y2="341" gradientUnits="userSpaceOnUse">
<stop stop-color="#E7E7E7"/>
<stop offset="1" stop-color="#EAEBE6" stop-opacity="0"/>
</linearGradient>
<linearGradient id="paint3_linear_1365_72418" x1="255.381" y1="338.013" x2="255.381" y2="341" gradientUnits="userSpaceOnUse">
<stop stop-color="#E7E7E7"/>
<stop offset="1" stop-color="#EAEBE6" stop-opacity="0"/>
</linearGradient>
<linearGradient id="paint4_linear_1365_72418" x1="244.617" y1="338.013" x2="244.617" y2="341" gradientUnits="userSpaceOnUse">
<stop stop-color="#E7E7E7"/>
<stop offset="1" stop-color="#EAEBE6" stop-opacity="0"/>
</linearGradient>
<linearGradient id="paint5_linear_1365_72418" x1="231.707" y1="287.244" x2="231.707" y2="317.061" gradientUnits="userSpaceOnUse">
<stop stop-color="#E7E7E7"/>
<stop offset="1" stop-color="#EAEBE6" stop-opacity="0"/>
</linearGradient>
<linearGradient id="paint6_linear_1365_72418" x1="212.327" y1="338.013" x2="212.327" y2="341" gradientUnits="userSpaceOnUse">
<stop stop-color="#E7E7E7"/>
<stop offset="1" stop-color="#EAEBE6" stop-opacity="0"/>
</linearGradient>
<linearGradient id="paint7_linear_1365_72418" x1="223.09" y1="338.013" x2="223.09" y2="341" gradientUnits="userSpaceOnUse">
<stop stop-color="#E7E7E7"/>
<stop offset="1" stop-color="#EAEBE6" stop-opacity="0"/>
</linearGradient>
<linearGradient id="paint8_linear_1365_72418" x1="287.823" y1="141.892" x2="287.823" y2="204" gradientUnits="userSpaceOnUse">
<stop stop-color="#E7E7E7"/>
<stop offset="1" stop-color="#EAEBE6" stop-opacity="0"/>
</linearGradient>
<linearGradient id="paint9_linear_1365_72418" x1="296.129" y1="187.135" x2="296.129" y2="197.123" gradientUnits="userSpaceOnUse">
<stop stop-color="#E7E7E7"/>
<stop offset="1" stop-color="#EAEBE6" stop-opacity="0"/>
</linearGradient>
<linearGradient id="paint10_linear_1365_72418" x1="290.602" y1="165.247" x2="290.602" y2="177.753" gradientUnits="userSpaceOnUse">
<stop stop-color="#E7E7E7"/>
<stop offset="1" stop-color="#EAEBE6" stop-opacity="0"/>
</linearGradient>
<linearGradient id="paint11_linear_1365_72418" x1="271.587" y1="163.492" x2="271.587" y2="174.562" gradientUnits="userSpaceOnUse">
<stop stop-color="#E7E7E7"/>
<stop offset="1" stop-color="#EAEBE6" stop-opacity="0"/>
</linearGradient>
<linearGradient id="paint12_linear_1365_72418" x1="275.5" y1="150.145" x2="275.5" y2="162.651" gradientUnits="userSpaceOnUse">
<stop stop-color="#E7E7E7"/>
<stop offset="1" stop-color="#EAEBE6" stop-opacity="0"/>
</linearGradient>
<linearGradient id="paint13_linear_1365_72418" x1="254.871" y1="139" x2="254.871" y2="204" gradientUnits="userSpaceOnUse">
<stop stop-color="#E7E7E7"/>
<stop offset="1" stop-color="#EAEBE6" stop-opacity="0"/>
</linearGradient>
<linearGradient id="paint14_linear_1365_72418" x1="254.871" y1="189.017" x2="254.871" y2="195.241" gradientUnits="userSpaceOnUse">
<stop stop-color="#E7E7E7"/>
<stop offset="1" stop-color="#EAEBE6" stop-opacity="0"/>
</linearGradient>
<linearGradient id="paint15_linear_1365_72418" x1="129.004" y1="87.3497" x2="169.703" y2="129.357" gradientUnits="userSpaceOnUse">
<stop stop-color="#E7E7E7"/>
<stop offset="1" stop-color="#EAEBE6" stop-opacity="0"/>
</linearGradient>
<linearGradient id="paint16_linear_1365_72418" x1="33" y1="178" x2="33" y2="244" gradientUnits="userSpaceOnUse">
<stop stop-color="#E7E7E7"/>
<stop offset="1" stop-color="#EAEBE6" stop-opacity="0"/>
</linearGradient>
<linearGradient id="paint17_linear_1365_72418" x1="89.0377" y1="299.164" x2="62.3283" y2="346.926" gradientUnits="userSpaceOnUse">
<stop stop-color="#E7E7E7"/>
<stop offset="1" stop-color="#EAEBE6" stop-opacity="0"/>
</linearGradient>
<linearGradient id="paint18_linear_1365_72418" x1="78.2171" y1="333.235" x2="76.527" y2="336.258" gradientUnits="userSpaceOnUse">
<stop stop-color="#E7E7E7"/>
<stop offset="1" stop-color="#EAEBE6" stop-opacity="0"/>
</linearGradient>
<linearGradient id="paint19_linear_1365_72418" x1="71.5554" y1="330.426" x2="70.2554" y2="332.75" gradientUnits="userSpaceOnUse">
<stop stop-color="#E7E7E7"/>
<stop offset="1" stop-color="#EAEBE6" stop-opacity="0"/>
</linearGradient>
<linearGradient id="paint20_linear_1365_72418" x1="65.6741" y1="326.221" x2="63.9841" y2="329.243" gradientUnits="userSpaceOnUse">
<stop stop-color="#E7E7E7"/>
<stop offset="1" stop-color="#EAEBE6" stop-opacity="0"/>
</linearGradient>
<linearGradient id="paint21_linear_1365_72418" x1="73.4009" y1="311.596" x2="66.0337" y2="324.77" gradientUnits="userSpaceOnUse">
<stop stop-color="#E7E7E7"/>
<stop offset="1" stop-color="#EAEBE6" stop-opacity="0"/>
</linearGradient>
<linearGradient id="paint22_linear_1365_72418" x1="76.138" y1="307.509" x2="74.4479" y2="310.531" gradientUnits="userSpaceOnUse">
<stop stop-color="#E7E7E7"/>
<stop offset="1" stop-color="#EAEBE6" stop-opacity="0"/>
</linearGradient>
<linearGradient id="paint23_linear_1365_72418" x1="82.4099" y1="311.016" x2="81.1099" y2="313.341" gradientUnits="userSpaceOnUse">
<stop stop-color="#E7E7E7"/>
<stop offset="1" stop-color="#EAEBE6" stop-opacity="0"/>
</linearGradient>
<linearGradient id="paint24_linear_1365_72418" x1="88.6814" y1="314.523" x2="86.9915" y2="317.545" gradientUnits="userSpaceOnUse">
<stop stop-color="#E7E7E7"/>
<stop offset="1" stop-color="#EAEBE6" stop-opacity="0"/>
</linearGradient>
<linearGradient id="paint25_linear_1365_72418" x1="86.6319" y1="318.996" x2="79.2646" y2="332.17" gradientUnits="userSpaceOnUse">
<stop stop-color="#E7E7E7"/>
<stop offset="1" stop-color="#EAEBE6" stop-opacity="0"/>
</linearGradient>
<linearGradient id="paint26_linear_1365_72418" x1="311.204" y1="9.72856" x2="291.105" y2="61.5944" gradientUnits="userSpaceOnUse">
<stop stop-color="#E7E7E7"/>
<stop offset="1" stop-color="#EAEBE6" stop-opacity="0"/>
</linearGradient>
<linearGradient id="paint27_linear_1365_72418" x1="321.318" y1="25.5507" x2="312.577" y2="48.1062" gradientUnits="userSpaceOnUse">
<stop stop-color="#E7E7E7"/>
<stop offset="1" stop-color="#EAEBE6" stop-opacity="0"/>
</linearGradient>
<linearGradient id="paint28_linear_1365_72418" x1="298.386" y1="43.0488" x2="297.204" y2="46.0998" gradientUnits="userSpaceOnUse">
<stop stop-color="#E7E7E7"/>
<stop offset="1" stop-color="#EAEBE6" stop-opacity="0"/>
</linearGradient>
<linearGradient id="paint29_linear_1365_72418" x1="293.211" y1="41.8533" x2="292.302" y2="44.2002" gradientUnits="userSpaceOnUse">
<stop stop-color="#E7E7E7"/>
<stop offset="1" stop-color="#EAEBE6" stop-opacity="0"/>
</linearGradient>
<linearGradient id="paint30_linear_1365_72418" x1="287.995" y1="39.8321" x2="287.085" y2="42.1789" gradientUnits="userSpaceOnUse">
<stop stop-color="#E7E7E7"/>
<stop offset="1" stop-color="#EAEBE6" stop-opacity="0"/>
</linearGradient>
<linearGradient id="paint31_linear_1365_72418" x1="283.366" y1="37.2284" x2="282.184" y2="40.2793" gradientUnits="userSpaceOnUse">
<stop stop-color="#E7E7E7"/>
<stop offset="1" stop-color="#EAEBE6" stop-opacity="0"/>
</linearGradient>
<linearGradient id="paint32_linear_1365_72418" x1="287.435" y1="25.6859" x2="285.961" y2="29.4889" gradientUnits="userSpaceOnUse">
<stop stop-color="#E7E7E7"/>
<stop offset="1" stop-color="#EAEBE6" stop-opacity="0"/>
</linearGradient>
<linearGradient id="paint33_linear_1365_72418" x1="289.645" y1="19.9827" x2="288.171" y2="23.7857" gradientUnits="userSpaceOnUse">
<stop stop-color="#E7E7E7"/>
<stop offset="1" stop-color="#EAEBE6" stop-opacity="0"/>
</linearGradient>
<linearGradient id="paint34_linear_1365_72418" x1="285.225" y1="31.389" x2="283.751" y2="35.192" gradientUnits="userSpaceOnUse">
<stop stop-color="#E7E7E7"/>
<stop offset="1" stop-color="#EAEBE6" stop-opacity="0"/>
</linearGradient>
<linearGradient id="paint35_linear_1365_72418" x1="291.916" y1="15.168" x2="290.733" y2="18.2189" gradientUnits="userSpaceOnUse">
<stop stop-color="#E7E7E7"/>
<stop offset="1" stop-color="#EAEBE6" stop-opacity="0"/>
</linearGradient>
<linearGradient id="paint36_linear_1365_72418" x1="296.817" y1="17.0674" x2="295.907" y2="19.4143" gradientUnits="userSpaceOnUse">
<stop stop-color="#E7E7E7"/>
<stop offset="1" stop-color="#EAEBE6" stop-opacity="0"/>
</linearGradient>
<linearGradient id="paint37_linear_1365_72418" x1="302.033" y1="19.0887" x2="301.124" y2="21.4355" gradientUnits="userSpaceOnUse">
<stop stop-color="#E7E7E7"/>
<stop offset="1" stop-color="#EAEBE6" stop-opacity="0"/>
</linearGradient>
<linearGradient id="paint38_linear_1365_72418" x1="306.935" y1="20.9882" x2="305.752" y2="24.0391" gradientUnits="userSpaceOnUse">
<stop stop-color="#E7E7E7"/>
<stop offset="1" stop-color="#EAEBE6" stop-opacity="0"/>
</linearGradient>
<linearGradient id="paint39_linear_1365_72418" x1="303.158" y1="31.7788" x2="301.684" y2="35.5817" gradientUnits="userSpaceOnUse">
<stop stop-color="#E7E7E7"/>
<stop offset="1" stop-color="#EAEBE6" stop-opacity="0"/>
</linearGradient>
<linearGradient id="paint40_linear_1365_72418" x1="305.368" y1="26.0755" x2="303.894" y2="29.8785" gradientUnits="userSpaceOnUse">
<stop stop-color="#E7E7E7"/>
<stop offset="1" stop-color="#EAEBE6" stop-opacity="0"/>
</linearGradient>
<linearGradient id="paint41_linear_1365_72418" x1="300.948" y1="37.4818" x2="299.474" y2="41.2847" gradientUnits="userSpaceOnUse">
<stop stop-color="#E7E7E7"/>
<stop offset="1" stop-color="#EAEBE6" stop-opacity="0"/>
</linearGradient>
</defs>
</svg>
