<svg width="26" height="30" viewBox="0 0 26 30" fill="none" xmlns="http://www.w3.org/2000/svg">
<g filter="url(#filter0_d_19378_72540)">
<path d="M11.8696 14.6087C5.32488 14.6087 3.13469e-08 19.9336 3.13469e-08 26.4783C3.13469e-08 26.9823 0.409073 27.3914 0.913073 27.3914C1.41707 27.3914 1.82615 26.9822 1.82615 26.4782C1.82615 20.9397 6.33108 16.4348 11.8696 16.4348C17.4081 16.4348 21.9131 20.9397 21.9131 26.4782C21.9131 26.9822 22.3221 27.3913 22.8261 27.3913C23.3302 27.3913 23.7392 26.9822 23.7392 26.4782C23.7392 19.9336 18.4143 14.6087 11.8696 14.6087Z" fill="#4F4F4F"/>
</g>
<g filter="url(#filter1_d_19378_72540)">
<path d="M11.8699 0C8.34553 0 5.47852 2.86693 5.47852 6.39134C5.47852 9.91575 8.34545 12.7827 11.8699 12.7827C15.3943 12.7827 18.2612 9.91567 18.2612 6.39134C18.2612 2.86702 15.3943 0 11.8699 0ZM11.8699 10.9565C9.35353 10.9565 7.30466 8.90766 7.30466 6.39134C7.30466 3.87502 9.35353 1.82615 11.8699 1.82615C14.3862 1.82615 16.4351 3.87502 16.4351 6.39134C16.4351 8.90766 14.3863 10.9565 11.8699 10.9565Z" fill="#4F4F4F"/>
</g>
<defs>
<filter id="filter0_d_19378_72540" x="0" y="14.6087" width="25.7393" height="14.7827" filterUnits="userSpaceOnUse" color-interpolation-filters="sRGB">
<feFlood flood-opacity="0" result="BackgroundImageFix"/>
<feColorMatrix in="SourceAlpha" type="matrix" values="0 0 0 0 0 0 0 0 0 0 0 0 0 0 0 0 0 0 127 0" result="hardAlpha"/>
<feOffset dx="2" dy="2"/>
<feColorMatrix type="matrix" values="0 0 0 0 0 0 0 0 0 0 0 0 0 0 0 0 0 0 0.03 0"/>
<feBlend mode="normal" in2="BackgroundImageFix" result="effect1_dropShadow_19378_72540"/>
<feBlend mode="normal" in="SourceGraphic" in2="effect1_dropShadow_19378_72540" result="shape"/>
</filter>
<filter id="filter1_d_19378_72540" x="5.47852" y="0" width="14.7827" height="14.7827" filterUnits="userSpaceOnUse" color-interpolation-filters="sRGB">
<feFlood flood-opacity="0" result="BackgroundImageFix"/>
<feColorMatrix in="SourceAlpha" type="matrix" values="0 0 0 0 0 0 0 0 0 0 0 0 0 0 0 0 0 0 127 0" result="hardAlpha"/>
<feOffset dx="2" dy="2"/>
<feColorMatrix type="matrix" values="0 0 0 0 0 0 0 0 0 0 0 0 0 0 0 0 0 0 0.03 0"/>
<feBlend mode="normal" in2="BackgroundImageFix" result="effect1_dropShadow_19378_72540"/>
<feBlend mode="normal" in="SourceGraphic" in2="effect1_dropShadow_19378_72540" result="shape"/>
</filter>
</defs>
</svg>
