<svg width="28" height="16" viewBox="0 0 28 16" fill="none" xmlns="http://www.w3.org/2000/svg">
<path fill-rule="evenodd" clip-rule="evenodd" d="M24.098 10.1735C25.0268 11.0892 26.0071 11.9507 26.8401 12.9587C27.2081 13.4066 27.5565 13.8688 27.823 14.3887C28.2007 15.1276 27.8586 15.9408 27.2024 15.985L23.1233 15.9831C22.0712 16.0713 21.2319 15.6436 20.5262 14.9172C19.9615 14.3364 19.4385 13.7182 18.8954 13.1177C18.6728 12.8723 18.4398 12.6413 18.1614 12.4588C17.6045 12.0938 17.1212 12.2056 16.803 12.792C16.4789 13.3885 16.4053 14.049 16.3735 14.7137C16.3298 15.6836 16.0395 15.9386 15.0746 15.983C13.0126 16.0812 11.0557 15.7662 9.23773 14.7158C7.63497 13.7899 6.3921 12.4827 5.31032 11.0028C3.20406 8.12114 1.59109 4.95467 0.141409 1.69949C-0.184902 0.966094 0.053737 0.572411 0.855117 0.558477C2.18584 0.532374 3.51639 0.534232 4.84868 0.556619C5.38952 0.564608 5.74757 0.877845 5.95641 1.39378C6.67637 3.18133 7.55733 4.88203 8.66312 6.45843C8.9576 6.87813 9.25788 7.29782 9.68548 7.59322C10.1585 7.9203 10.5187 7.81189 10.7412 7.2798C10.8824 6.94241 10.9443 6.57901 10.9761 6.21765C11.0815 4.97446 11.0954 3.7334 10.9105 2.49457C10.797 1.72141 10.3657 1.2209 9.60167 1.07459C9.21179 1 9.26984 0.853507 9.45861 0.628798C9.78649 0.241245 10.0949 -1.24735e-07 10.7096 -1.24735e-07H15.3196C16.0454 0.144635 16.2065 0.473851 16.3059 1.21124L16.3099 6.38198C16.3019 6.66744 16.4511 7.51454 16.9603 7.70349C17.3678 7.838 17.6364 7.50878 17.881 7.24784C18.9847 6.06493 19.7725 4.66698 20.4763 3.21942C20.7886 2.58291 21.0571 1.92188 21.3174 1.2614C21.5102 0.771296 21.8128 0.530144 22.3595 0.540827L26.7964 0.544821C26.928 0.544821 27.0611 0.546772 27.1885 0.568788C27.9362 0.697446 28.141 1.0222 27.9101 1.75941C27.5463 2.91603 26.8384 3.87989 26.1462 4.84821C25.4063 5.88203 24.6149 6.88045 23.8812 7.92039C23.207 8.87004 23.2605 9.34873 24.098 10.1735Z" fill="#469FDC"/>
</svg>
